<?xml version="1.0" encoding="UTF-8"?>
<svg width="900px" height="587px" viewBox="0 0 900 587" version="1.1" xmlns="http://www.w3.org/2000/svg" xmlns:xlink="http://www.w3.org/1999/xlink">
    <!-- Generator: Sketch 61.2 (89653) - https://sketch.com -->
    <title>1</title>
    <desc>Created with Sketch.</desc>
    <defs>
        <linearGradient x1="49.6689957%" y1="74.9963732%" x2="49.6689957%" y2="18.3572408%" id="linearGradient-1">
            <stop stop-color="#FFFFFF" stop-opacity="0" offset="21%"></stop>
            <stop stop-color="#FFFFFF" stop-opacity="0.2" offset="100%"></stop>
        </linearGradient>
        <linearGradient x1="50.6572141%" y1="19.5668839%" x2="50.6572141%" y2="59.767201%" id="linearGradient-2">
            <stop stop-color="#E9EAF2" stop-opacity="0.8" offset="0%"></stop>
            <stop stop-color="#E9EAF2" stop-opacity="0" offset="100%"></stop>
        </linearGradient>
    </defs>
    <g id="Images" stroke="none" stroke-width="1" fill="none" fill-rule="evenodd">
        <g id="Artboard" transform="translate(-42.000000, -60.000000)">
            <g id="1" transform="translate(42.000000, 60.000000)">
                <rect id="Rectangle-Copy-22" fill="#F9F9F9" x="0" y="0" width="900" height="586.348502"></rect>
                <g id="app_development_SVG" transform="translate(211.764706, 37.957825)">
                    <g id="Laptop" transform="translate(5.697811, 28.446141)">
                        <path d="M457.164064,365.131884 L199.67979,216.873739 C196.065723,214.820302 193.141521,209.214419 193.141521,204.419644 L193.141521,5.78042489 C193.141521,0.975382531 196.065723,-1.23206214 199.67979,0.852176316 L457.164064,149.110321 C460.778131,151.163758 463.702764,156.769641 463.702764,161.564416 L463.702764,360.203635 C463.74352,365.008677 460.819317,367.216122 457.164064,365.131884 Z" id="Path" fill="#B1B4C4" fill-rule="nonzero"></path>
                        <polygon id="Path" fill="#B1B4C4" fill-rule="nonzero" points="458.533497 367.18532 461.385624 365.542571 460.150045 357.113212"></polygon>
                        <path d="M192.678179,2.05343691 L195.48912,0.43122175 L199.525343,2.73107109 C199.525343,2.73107109 195.221411,3.37790371 195.118446,3.35736934 C195.015481,3.33683497 192.678179,2.05343691 192.678179,2.05343691 Z" id="Path" fill="#B1B4C4" fill-rule="nonzero"></path>
                        <path d="M454.847354,366.538488 L197.321895,218.239274 C193.707827,216.185838 190.773328,210.579955 190.773328,205.774912 L190.773328,7.18702917 C190.773328,2.38198681 193.707827,0.174542137 197.321895,2.2587806 L454.847354,150.516925 C458.461421,152.570362 461.385624,158.176245 461.385624,162.981287 L461.385624,361.569171 C461.385624,366.363946 458.461421,368.591925 454.847354,366.538488 Z" id="Path" fill="#E4E7F2" fill-rule="nonzero"></path>
                        <path d="M454.394309,366.754099 L196.868849,218.495954 C193.254782,216.442517 190.320283,210.836634 190.320283,206.031592 L190.320283,7.39237286 C190.320283,2.59759769 193.254782,0.390153012 196.868849,2.46412429 L454.394309,150.722269 C457.998079,152.775706 460.932579,158.381589 460.932579,163.186631 L460.932579,361.82585 C460.932579,366.630893 457.998079,368.838337 454.394309,366.754099 Z" id="Path" fill="#D6D8E5" fill-rule="nonzero"></path>
                        <path d="M457.390587,354.669623 L193.573973,202.807696 L193.72842,8.21374763 C193.72842,6.22191383 195.128743,5.41080625 196.817367,6.40672315 L454.342826,154.664868 C456.176435,155.87636 457.323145,157.885014 457.431773,160.075674 L457.390587,354.669623 Z" id="Path" fill="#FFFFFF" fill-rule="nonzero"></path>
                        <path d="M457.308215,354.67989 L193.573973,202.817963 L193.656345,8.21374763 C193.656345,6.22191383 195.056667,5.41080625 196.745291,6.40672315 L454.270751,154.664868 C456.103119,155.877516 457.249439,157.885487 457.359697,160.075674 L457.308215,354.67989 Z" id="Path" fill="url(#linearGradient-1)" fill-rule="nonzero" opacity="0.5"></path>
                        <path d="M260.16136,482.177787 L2.63590091,333.919643 C-0.978166353,331.866206 -0.525120884,328.211088 3.6655497,325.808567 L176.183205,226.483824 C180.3018,224.09157 186.66503,223.824623 190.2688,225.908861 L447.804556,374.167006 C451.408327,376.220443 450.955282,379.875561 446.774908,382.278082 L274.246956,481.602825 C270.076878,483.995079 263.765131,484.262026 260.16136,482.177787 Z" id="Path" fill="#D6D8E5" fill-rule="nonzero" opacity="0.4"></path>
                        <path d="M265.783243,478.810151 L8.23719034,330.603342 C4.62312308,328.549905 5.07616855,324.894787 9.26683913,322.492266 L181.784494,223.17779 C185.90309,220.775269 192.266319,220.508322 195.880386,222.592561 L453.405846,370.850705 C457.019913,372.904142 456.566868,376.55926 452.376197,378.961781 L279.879135,478.235188 C275.709057,480.627442 269.39731,480.894389 265.783243,478.810151 Z" id="Path" fill="#B1B4C4" fill-rule="nonzero"></path>
                        <polygon id="Path" fill="#B1B4C4" fill-rule="nonzero" points="5.81751568 327.204904 5.81751568 322.358793 11.2746543 324.638108"></polygon>
                        <polygon id="Path" fill="#B1B4C4" fill-rule="nonzero" points="455.846114 374.423686 455.846114 369.690514 451.80989 371.076583 454.486977 374.998648"></polygon>
                        <path d="M265.783243,474.734078 L8.23719034,326.496468 C4.62312308,324.443031 5.07616855,320.787914 9.26683913,318.385392 L181.784494,219.060649 C185.90309,216.658128 192.266319,216.401448 195.880386,218.485687 L453.405846,366.743832 C457.019913,368.797268 456.566868,372.452386 452.376197,374.854907 L279.879135,474.148849 C275.709057,476.55137 269.39731,476.818317 265.783243,474.734078 Z" id="Path" fill="#E4E7F2" fill-rule="nonzero"></path>
                        <path d="M265.783243,474.10778 L8.23719034,325.849636 C4.62312308,323.796199 5.07616855,320.130814 9.26683913,317.73856 L181.784494,218.413817 C185.90309,216.011295 192.266319,215.754616 195.880386,217.828587 L453.405846,366.096999 C457.019913,368.150436 456.566868,371.805554 452.376197,374.208075 L279.879135,473.522551 C275.709057,475.925072 269.39731,476.181751 265.783243,474.10778 Z" id="Path" fill="#D6D8E5" fill-rule="nonzero"></path>
                        <path d="M177.006924,251.91564 L165.021812,245.016092 C163.992163,244.451397 164.167204,243.465747 165.289521,242.818914 L176.739215,236.227382 C177.912674,235.576189 179.326445,235.519037 180.548916,236.073374 L192.544324,242.972922 C193.522491,243.537617 193.398933,244.523267 192.266319,245.170099 L180.826921,251.761632 C179.649817,252.413008 178.232922,252.470132 177.006924,251.91564 Z" id="Path" fill="#2B303F" fill-rule="nonzero"></path>
                        <path d="M193.985833,261.689999 L181.990424,254.780184 C181.012258,254.225756 181.135816,253.240107 182.268429,252.583007 L193.707827,246.001741 C194.884931,245.350365 196.301827,245.293241 197.527824,245.847734 L209.512936,252.747282 C210.542585,253.311977 210.367545,254.297627 209.245228,254.944459 L197.795533,261.525724 C196.625137,262.185142 195.208946,262.246208 193.985833,261.689999 Z" id="Path" fill="#2B303F" fill-rule="nonzero"></path>
                        <path d="M211.150078,271.577298 L199.164966,264.667483 C198.135317,264.102788 198.310357,263.117138 199.432675,262.470305 L210.882369,255.88904 C212.052765,255.229623 213.468956,255.168556 214.69207,255.724765 L226.687478,262.63458 C227.717127,263.189008 227.542087,264.174658 226.409473,264.831758 L214.970075,271.413023 C213.792812,272.061306 212.378942,272.122108 211.150078,271.577298 L211.150078,271.577298 Z" id="Path" fill="#2B303F" fill-rule="nonzero"></path>
                        <path d="M227.933353,281.228452 L215.937945,274.328904 C214.959778,273.764208 215.083336,272.778559 216.21595,272.131726 L227.655348,265.540194 C228.832452,264.888817 230.249347,264.831694 231.475345,265.386186 L243.470754,272.285734 C244.44892,272.850429 244.325362,273.836079 243.192748,274.482911 L231.75335,281.074444 C230.576247,281.72582 229.159351,281.782944 227.933353,281.228452 Z" id="Path" fill="#2B303F" fill-rule="nonzero"></path>
                        <path d="M244.912262,291.002811 L232.916853,284.103263 C231.887205,283.538568 232.062245,282.552918 233.194859,281.906086 L244.634257,275.314553 C245.81136,274.663177 247.228256,274.606053 248.454254,275.160546 L260.439366,282.060094 C261.417532,282.624789 261.293974,283.610438 260.16136,284.257271 L248.721962,290.848803 C247.548504,291.499996 246.134733,291.557148 244.912262,291.002811 L244.912262,291.002811 Z" id="Path" fill="#2B303F" fill-rule="nonzero"></path>
                        <path d="M261.880874,300.828507 L249.895762,293.928959 C248.917596,293.364264 249.030857,292.378614 250.163471,291.731781 L261.602869,285.140249 C262.779972,284.488873 264.196868,284.431749 265.422866,284.986241 L277.418274,291.885789 C278.396441,292.450484 278.272883,293.436134 277.140269,294.082967 L265.700871,300.674499 C264.523767,301.325875 263.106872,301.382999 261.880874,300.828507 L261.880874,300.828507 Z" id="Path" fill="#2B303F" fill-rule="nonzero"></path>
                        <path d="M278.859783,310.551531 L266.864374,303.651983 C265.886208,303.087287 266.009766,302.101638 267.142379,301.454805 L278.581777,294.863273 C279.758881,294.211897 281.175777,294.154773 282.401774,294.709265 L294.386886,301.608813 C295.365053,302.173508 295.241495,303.159158 294.119178,303.80599 L282.669483,310.387256 C281.499087,311.046673 280.082896,311.10774 278.859783,310.551531 Z" id="Path" fill="#2B303F" fill-rule="nonzero"></path>
                        <path d="M295.828395,320.336157 L283.843283,313.426342 C282.865116,312.861647 282.988674,311.886265 284.110991,311.229165 L295.560686,304.647899 C296.731082,303.988482 298.147273,303.927415 299.370386,304.483625 L311.365795,311.39344 C312.395444,311.958135 312.220403,312.933517 311.08779,313.590617 L299.627799,320.161615 C298.460839,320.817615 297.050899,320.882387 295.828395,320.336157 Z" id="Path" fill="#2B303F" fill-rule="nonzero"></path>
                        <path d="M312.807303,330.089983 L300.811895,323.190435 C299.833728,322.62574 299.957286,321.64009 301.0899,320.993257 L312.529298,314.411992 C313.703354,313.752416 315.122651,313.69138 316.349295,314.247717 L328.334407,321.157532 C329.312573,321.71196 329.189016,322.69761 328.066698,323.35471 L316.6273,329.935975 C315.450197,330.587351 314.033301,330.644475 312.807303,330.089983 L312.807303,330.089983 Z" id="Path" fill="#2B303F" fill-rule="nonzero"></path>
                        <path d="M329.775915,339.843808 L317.790803,332.94426 C316.812637,332.379565 316.936195,331.393915 318.058512,330.747083 L329.487614,324.176084 C330.661072,323.524892 332.074843,323.46774 333.297314,324.022077 L345.292723,330.921625 C346.270889,331.48632 346.147331,332.47197 345.014717,333.118802 L333.606209,339.710335 C332.423068,340.358548 331.001549,340.408083 329.775915,339.843808 L329.775915,339.843808 Z" id="Path" fill="#2B303F" fill-rule="nonzero"></path>
                        <path d="M346.754824,349.638702 L334.759415,342.739154 C333.781249,342.174459 333.904807,341.188809 335.037421,340.541977 L346.476819,333.950444 C347.653922,333.299068 349.070818,333.241944 350.296816,333.796436 L362.292224,340.695984 C363.270391,341.26068 363.146833,342.246329 362.014219,342.893162 L350.574821,349.484694 C349.397717,350.13607 347.980822,350.193194 346.754824,349.638702 Z" id="Path" fill="#2B303F" fill-rule="nonzero"></path>
                        <path d="M363.733733,359.413062 L351.738324,352.513514 C350.760158,351.948819 350.883716,350.963169 352.016329,350.316336 L363.466024,343.724804 C364.643128,343.073428 366.060023,343.016304 367.286021,343.570796 L379.271133,350.470344 C380.300782,351.035039 380.125741,352.020689 378.993128,352.667522 L367.584619,359.259054 C366.400279,359.924073 364.967679,359.981367 363.733733,359.413062 Z" id="Path" fill="#2B303F" fill-rule="nonzero"></path>
                        <path d="M380.702345,369.187421 L368.717233,362.277606 C367.687584,361.712911 367.852328,360.737529 368.984941,360.080429 L380.424339,353.499164 C381.599792,352.844483 383.016724,352.783549 384.244336,353.334889 L396.239745,360.244704 C397.217911,360.809399 397.094353,361.784781 395.96174,362.441881 L384.522342,369.023147 C383.348286,369.682723 381.928988,369.743758 380.702345,369.187421 Z" id="Path" fill="#2B303F" fill-rule="nonzero"></path>
                        <path d="M405.856665,383.664152 L385.685845,372.051966 C384.707678,371.487271 384.831236,370.501621 385.96385,369.854788 L397.444434,363.273523 C398.61849,362.613947 400.037787,362.552912 401.264431,363.109248 L421.383768,374.752235 C422.361935,375.316931 422.238377,376.30258 421.11606,376.949413 L409.666365,383.540945 C408.487951,384.182255 407.074276,384.227973 405.856665,383.664152 Z" id="Path" fill="#2B303F" fill-rule="nonzero"></path>
                        <path d="M185.738346,275.879248 L173.742937,269.000235 C172.713288,268.43554 172.888329,267.44989 174.020942,266.803057 L185.460341,260.211525 C186.637444,259.560149 188.05434,259.503025 189.280338,260.057517 L201.26545,266.946798 C202.243616,267.511493 202.120058,268.497143 200.997741,269.143975 L189.548046,275.735508 C188.372934,276.383401 186.959197,276.436742 185.738346,275.879248 Z" id="Path" fill="#2B303F" fill-rule="nonzero"></path>
                        <path d="M202.737847,285.674142 L190.752735,278.774594 C189.774569,278.209899 189.898127,277.22425 191.020444,276.577417 L202.470139,270.026953 C203.643597,269.37576 205.057368,269.318608 206.279839,269.872945 L218.285544,276.731425 C219.26371,277.29612 219.140153,278.28177 218.007539,278.928602 L206.568141,285.520135 C205.388307,286.174941 203.966723,286.232099 202.737847,285.674142 Z" id="Path" fill="#2B303F" fill-rule="nonzero"></path>
                        <path d="M219.747645,295.458769 L207.752237,288.559221 C206.722588,287.994526 206.897628,287.008876 208.030242,286.362044 L219.46964,279.770511 C220.646744,279.119135 222.06364,279.062011 223.289637,279.616504 L235.274749,286.516052 C236.252915,287.080747 236.129358,288.066396 235.00704,288.713229 L223.557346,295.304762 C222.383887,295.955954 220.970116,296.013106 219.747645,295.458769 Z" id="Path" fill="#2B303F" fill-rule="nonzero"></path>
                        <path d="M236.747147,305.253663 L224.751738,298.343848 C223.773572,297.78942 223.89713,296.803771 225.029744,296.146671 L236.469142,289.534604 C237.644594,288.879923 239.061526,288.81899 240.289139,289.370329 L252.263954,296.310946 C253.242121,296.875641 253.118563,297.851023 251.985949,298.508123 L240.546551,305.089388 C239.377935,305.742079 237.968034,305.803039 236.747147,305.253663 Z" id="Path" fill="#2B303F" fill-rule="nonzero"></path>
                        <path d="M253.612794,314.96642 L241.627682,308.015536 C240.649516,307.450841 240.773074,306.475458 241.895391,305.818359 L253.345085,299.237093 C254.515482,298.577676 255.931672,298.516609 257.154786,299.072818 L269.150194,305.982633 C270.179843,306.537061 270.004803,307.522711 268.872189,308.179811 L257.412198,314.802145 C256.242209,315.450003 254.834629,315.510862 253.612794,314.96642 Z" id="Path" fill="#2B303F" fill-rule="nonzero"></path>
                        <path d="M270.622592,324.751047 L258.627184,317.851499 C257.649017,317.286804 257.772575,316.301154 258.905189,315.654321 L270.344587,309.042254 C271.521691,308.390878 272.938586,308.333755 274.164584,308.888247 L286.149696,315.787795 C287.127862,316.35249 287.004304,317.33814 285.881987,317.984972 L274.432293,324.576505 C273.262146,325.23431 271.8483,325.299086 270.622592,324.751047 Z" id="Path" fill="#2B303F" fill-rule="nonzero"></path>
                        <path d="M287.622094,334.535674 L275.626685,327.636126 C274.648519,327.071431 274.772077,326.085781 275.90469,325.438948 L287.344089,318.857683 C288.518144,318.198107 289.937442,318.137071 291.164086,318.693408 L303.159494,325.603223 C304.13766,326.157651 304.014103,327.143301 302.881489,327.800401 L291.442091,334.381666 C290.264987,335.033042 288.848091,335.090166 287.622094,334.535674 L287.622094,334.535674 Z" id="Path" fill="#2B303F" fill-rule="nonzero"></path>
                        <path d="M304.621595,344.330568 L292.636483,337.43102 C291.658317,336.866325 291.781875,335.880675 292.914489,335.233842 L304.353887,328.64231 C305.527345,327.991117 306.941116,327.933965 308.163587,328.488302 L320.158996,335.38785 C321.137162,335.952545 321.013604,336.938195 319.88099,337.585027 L308.441592,344.17656 C307.264489,344.827936 305.847593,344.88506 304.621595,344.330568 Z" id="Path" fill="#2B303F" fill-rule="nonzero"></path>
                        <path d="M321.631393,354.115195 L309.635985,347.215647 C308.606336,346.650951 308.781376,345.665302 309.91399,345.018469 L321.353388,338.426937 C322.530492,337.77556 323.947388,337.718437 325.173385,338.272929 L337.158497,345.172477 C338.136664,345.737172 338.023402,346.722822 336.890788,347.369654 L325.45139,353.961187 C324.274287,354.612563 322.857391,354.669687 321.631393,354.115195 Z" id="Path" fill="#2B303F" fill-rule="nonzero"></path>
                        <path d="M338.630895,363.910089 L326.645783,357.000273 C325.667617,356.445845 325.791175,355.460196 326.913492,354.803096 L338.363186,348.221831 C339.536363,347.57217 340.947847,347.511307 342.172887,348.057556 L354.199185,354.967371 C355.177351,355.532066 355.053793,356.517716 353.92118,357.164548 L342.481781,363.745814 C341.299598,364.415806 339.866143,364.476955 338.630895,363.910089 Z" id="Path" fill="#2B303F" fill-rule="nonzero"></path>
                        <path d="M355.640693,373.725517 L343.645285,366.825969 C342.667118,366.261274 342.790676,365.275624 343.92329,364.628792 L355.362688,358.037259 C356.539792,357.385883 357.956687,357.328759 359.182685,357.883251 L371.167797,364.782799 C372.145963,365.347494 372.022405,366.333144 370.900088,366.979977 L359.450394,373.571509 C358.276935,374.222702 356.863164,374.279854 355.640693,373.725517 Z" id="Path" fill="#2B303F" fill-rule="nonzero"></path>
                        <path d="M372.640195,383.48961 L360.655083,376.579794 C359.676916,376.015099 359.790178,375.039717 360.922791,374.382617 L372.362189,367.801352 C373.537642,367.146671 374.954574,367.085737 376.182186,367.637077 L388.177595,374.546892 C389.155761,375.111587 389.032203,376.086969 387.89959,376.744069 L376.460192,383.325335 C375.286136,383.984911 373.866838,384.045946 372.640195,383.48961 Z" id="Path" fill="#2B303F" fill-rule="nonzero"></path>
                        <path d="M168.728548,266.094622 L148.568024,254.482436 C147.589858,253.917741 147.713416,252.942358 148.835733,252.285258 L160.285428,245.703993 C161.455824,245.044575 162.872014,244.983509 164.095128,245.539718 L184.307134,257.151904 C185.2853,257.716599 185.161742,258.702249 184.029129,259.349081 L172.548545,265.920079 C171.374745,266.578069 169.957775,266.642813 168.728548,266.094622 Z" id="Path" fill="#2B303F" fill-rule="nonzero"></path>
                        <path d="M405.032946,384.29045 L393.047834,377.390902 C391.929183,376.820534 390.603899,376.820534 389.485249,377.390902 L377.397172,384.352053 C376.367523,384.916748 376.367523,385.830528 377.397172,386.40549 L378.354745,386.959918 C379.260836,387.473277 379.25054,388.325453 378.354745,388.84908 L365.525321,396.200384 C364.495673,396.775346 364.495673,397.689126 365.525321,398.253821 L373.155019,402.648176 C374.271282,403.213381 375.591044,403.213381 376.707307,402.648176 L388.671826,395.769162 L391.142983,394.342024 L392.924276,393.315305 L394.715865,392.288587 L405.012353,386.364421 C406.011112,385.768924 406.011112,384.855145 405.032946,384.29045 Z" id="Path" fill="#2B303F" fill-rule="nonzero"></path>
                        <path d="M111.263849,289.842619 L99.2787366,282.943071 C98.2490878,282.378376 98.4241281,281.392727 99.5464453,280.745894 L110.99614,274.133827 C112.169599,273.482634 113.583369,273.425482 114.80584,273.979819 L126.801249,280.879367 C127.779415,281.444062 127.655857,282.429712 126.523244,283.076545 L115.083846,289.668077 C113.910046,290.326067 112.493076,290.390811 111.263849,289.842619 Z" id="Path" fill="#2B303F" fill-rule="nonzero"></path>
                        <path d="M128.191275,299.586178 L116.206163,292.68663 C115.176514,292.121934 115.351554,291.136285 116.473871,290.489452 L127.923566,283.89792 C129.097025,283.246727 130.510795,283.189575 131.733267,283.743912 L143.728675,290.64346 C144.706841,291.208155 144.583283,292.193805 143.45067,292.840637 L132.011272,299.43217 C130.834168,300.083546 129.417272,300.14067 128.191275,299.586178 Z" id="Path" fill="#2B303F" fill-rule="nonzero"></path>
                        <path d="M145.118701,309.329736 L133.133589,302.430188 C132.10394,301.865492 132.268684,300.879843 133.401298,300.23301 L144.840696,293.641478 C146.017799,292.990102 147.434695,292.932978 148.660693,293.48747 L160.625212,300.387018 C161.603378,300.951713 161.47982,301.937363 160.347206,302.584195 L148.907808,309.175728 C147.738921,309.816884 146.336041,309.873903 145.118701,309.329736 Z" id="Path" fill="#2B303F" fill-rule="nonzero"></path>
                        <path d="M289.269532,392.319388 L277.274123,385.409573 C276.244475,384.855145 276.419515,383.869495 277.552129,383.212396 L288.991527,376.63113 C290.166979,375.97645 291.583911,375.915516 292.811524,376.466855 L304.776043,383.37667 C305.805691,383.941366 305.630651,384.916748 304.498037,385.573848 L293.079232,392.206449 C291.900508,392.849407 290.484479,392.891385 289.269532,392.319388 Z" id="Path" fill="#2B303F" fill-rule="nonzero"></path>
                        <path d="M306.186661,402.062946 L294.20155,395.163398 C293.171901,394.598703 293.346941,393.613053 294.469258,392.966221 L305.918953,386.374688 C307.092412,385.723495 308.506182,385.666344 309.728653,386.220681 L321.724062,393.120229 C322.753711,393.684924 322.57867,394.670573 321.446057,395.317406 L310.006659,401.908939 C308.829555,402.560315 307.412659,402.617439 306.186661,402.062946 L306.186661,402.062946 Z" id="Path" fill="#2B303F" fill-rule="nonzero"></path>
                        <path d="M323.114088,411.806504 L311.128976,404.906956 C310.150809,404.342261 310.274367,403.356612 311.396684,402.709779 L322.846379,396.118247 C324.019838,395.467054 325.433608,395.409902 326.656079,395.964239 L338.651488,402.863787 C339.681137,403.428482 339.506096,404.414132 338.373483,405.060964 L326.934085,411.652497 C325.756981,412.303873 324.340085,412.360997 323.114088,411.806504 Z" id="Path" fill="#2B303F" fill-rule="nonzero"></path>
                        <path d="M340.041514,421.550063 L328.056402,414.650515 C327.078235,414.085819 327.201793,413.10017 328.324111,412.453337 L339.784102,405.861805 C340.95756,405.210612 342.371331,405.15346 343.593802,405.707797 L355.589211,412.607345 C356.618859,413.17204 356.443819,414.15769 355.311205,414.804522 L343.902697,421.396055 C342.714696,422.06122 341.278999,422.118484 340.041514,421.550063 L340.041514,421.550063 Z" id="Path" fill="#2B303F" fill-rule="nonzero"></path>
                        <path d="M166.401541,321.588754 L150.050719,312.173746 C149.072552,311.609051 149.19611,310.623401 150.328724,309.976568 L161.768122,303.385036 C162.945226,302.73366 164.362121,302.676536 165.588119,303.231028 L181.938942,312.646036 C182.96859,313.210731 182.79355,314.186114 181.660936,314.843214 L170.221538,321.424479 C169.047483,322.084055 167.628185,322.145091 166.401541,321.588754 L166.401541,321.588754 Z" id="Path" fill="#2B303F" fill-rule="nonzero"></path>
                        <path d="M272.342106,382.57583 L255.991283,373.160822 C254.961634,372.596127 255.136674,371.610477 256.258992,370.963644 L267.708686,364.372112 C268.882145,363.720919 270.295916,363.663767 271.518387,364.218104 L287.869209,373.633112 C288.847376,374.197808 288.723818,375.17319 287.601501,375.83029 L276.151806,382.411555 C274.98141,383.070973 273.565219,383.132039 272.342106,382.57583 L272.342106,382.57583 Z" id="Path" fill="#2B303F" fill-rule="nonzero"></path>
                        <path d="M251.048969,370.316812 L171.343856,324.443031 C170.365689,323.878336 170.489247,322.892686 171.611564,322.245854 L183.061259,315.654321 C184.234718,315.003128 185.648488,314.945976 186.870959,315.500314 L266.586369,361.404896 C267.564535,361.969591 267.440977,362.95524 266.308364,363.602073 L254.868966,370.193606 C253.686919,370.835096 252.270118,370.880793 251.048969,370.316812 L251.048969,370.316812 Z" id="Path" fill="#2B303F" fill-rule="nonzero"></path>
                        <path d="M173.897385,288.015061 L161.912273,281.115513 C160.934106,280.550817 161.057664,279.565168 162.190278,278.918335 L173.629676,272.326803 C174.803135,271.67561 176.216905,271.618458 177.439376,272.172795 L189.455378,279.072343 C190.485027,279.637038 190.309986,280.622688 189.177373,281.26952 L177.737975,287.861053 C176.555414,288.5193 175.129134,288.576494 173.897385,288.015061 Z" id="Path" fill="#2B303F" fill-rule="nonzero"></path>
                        <path d="M190.8557,297.748351 L178.870588,290.838536 C177.892422,290.273841 178.01598,289.298459 179.138297,288.641359 L190.587992,282.060094 C191.759795,281.405597 193.173602,281.344633 194.397692,281.895819 L206.3931,288.805634 C207.422749,289.370329 207.247709,290.345711 206.115095,291.002811 L194.675697,297.584077 C193.501641,298.243653 192.082344,298.304688 190.8557,297.748351 Z" id="Path" fill="#2B303F" fill-rule="nonzero"></path>
                        <path d="M207.814016,307.532978 L195.818607,300.63343 C194.788959,300.068735 194.963999,299.083085 196.096613,298.436253 L207.536011,291.84472 C208.713114,291.193344 210.13001,291.13622 211.356008,291.690713 L223.34112,298.590261 C224.370768,299.154956 224.206025,300.140605 223.073411,300.787438 L211.634013,307.378971 C210.456909,308.030347 209.040013,308.087471 207.814016,307.532978 Z" id="Path" fill="#2B303F" fill-rule="nonzero"></path>
                        <path d="M224.772331,317.256002 L212.776923,310.356454 C211.747274,309.791759 211.922315,308.806109 213.054928,308.159277 L224.463437,301.608813 C225.640541,300.957437 227.057436,300.900313 228.283434,301.454805 L240.268546,308.354353 C241.298195,308.919048 241.123154,309.904698 240.000837,310.551531 L228.582032,317.143063 C227.40197,317.781088 225.988321,317.822995 224.772331,317.256002 Z" id="Path" fill="#2B303F" fill-rule="nonzero"></path>
                        <path d="M241.720351,327.061163 L229.735239,320.161615 C228.70559,319.59692 228.88063,318.61127 230.002947,317.964438 L241.452642,311.372905 C242.626101,310.721712 244.039871,310.664561 245.262342,311.218898 L257.257751,318.118446 C258.2874,318.683141 258.112359,319.66879 256.979746,320.315623 L245.540348,326.907156 C244.363244,327.558532 242.946348,327.615656 241.720351,327.061163 Z" id="Path" fill="#2B303F" fill-rule="nonzero"></path>
                        <path d="M258.678666,336.825256 L246.693554,329.915441 C245.663905,329.350745 245.828649,328.375363 246.961263,327.718263 L258.441847,321.136998 C259.615903,320.477422 261.0352,320.416386 262.261844,320.972723 L274.257252,327.882538 C275.235419,328.447233 275.111861,329.422616 273.979247,330.079716 L262.539849,336.660981 C261.354965,337.334468 259.916775,337.395656 258.678666,336.825256 Z" id="Path" fill="#2B303F" fill-rule="nonzero"></path>
                        <path d="M275.636982,346.579081 L263.641573,339.679533 C262.663407,339.114838 262.786965,338.129188 263.919579,337.482356 L275.358977,330.890823 C276.53608,330.239447 277.952976,330.182323 279.178974,330.736815 L291.164086,337.636363 C292.193734,338.201059 292.018694,339.186708 290.896377,339.833541 L279.446682,346.425073 C278.273224,347.076266 276.859453,347.133418 275.636982,346.579081 L275.636982,346.579081 Z" id="Path" fill="#2B303F" fill-rule="nonzero"></path>
                        <path d="M292.595297,356.343174 L280.599889,349.443626 C279.621723,348.87893 279.74528,347.893281 280.877894,347.246448 L292.317292,340.654916 C293.494396,340.00354 294.911292,339.946416 296.137289,340.500908 L308.122401,347.400456 C309.100568,347.965151 308.97701,348.950801 307.844396,349.597633 L296.404998,356.189166 C295.231539,356.840359 293.817768,356.897511 292.595297,356.343174 Z" id="Path" fill="#2B303F" fill-rule="nonzero"></path>
                        <path d="M309.543317,366.107266 L297.568501,359.207718 C296.590335,358.643023 296.713893,357.657373 297.83621,357.010541 L309.285904,350.419008 C310.459363,349.767815 311.873134,349.710663 313.095605,350.265 L325.091013,357.164548 C326.06918,357.729244 325.945622,358.714893 324.813008,359.361726 L313.37361,365.953258 C312.193776,366.608064 310.772192,366.665223 309.543317,366.107266 L309.543317,366.107266 Z" id="Path" fill="#2B303F" fill-rule="nonzero"></path>
                        <path d="M326.501632,375.871359 L314.506224,368.961543 C313.528057,368.396848 313.651615,367.421466 314.784229,366.764366 L326.223627,360.183101 C327.397683,359.523524 328.81698,359.462489 330.043624,360.018826 L342.039032,366.928641 C343.017199,367.483069 342.893641,368.468719 341.761027,369.125818 L330.321629,375.707084 C329.146177,376.361764 327.729245,376.422698 326.501632,375.871359 Z" id="Path" fill="#2B303F" fill-rule="nonzero"></path>
                        <path d="M343.459948,385.625184 L331.464539,378.725636 C330.486373,378.160941 330.609931,377.175291 331.742545,376.528458 L343.181943,369.936926 C344.359046,369.28555 345.775942,369.228426 347.00194,369.782918 L358.987052,376.682466 C360.0167,377.247161 359.84166,378.232811 358.719343,378.879644 L347.269648,385.471176 C346.09619,386.122369 344.682419,386.179521 343.459948,385.625184 Z" id="Path" fill="#2B303F" fill-rule="nonzero"></path>
                        <path d="M360.377077,395.389276 L348.391966,388.489728 C347.413799,387.925033 347.537357,386.939384 348.669971,386.292551 L360.109369,379.701018 C361.282827,379.049826 362.696598,378.992674 363.919069,379.547011 L375.914478,386.446559 C376.892644,387.011254 376.769086,387.996904 375.636473,388.643736 L364.227964,395.286605 C363.034377,395.93187 361.603539,395.970019 360.377077,395.389276 L360.377077,395.389276 Z" id="Path" fill="#2B303F" fill-rule="nonzero"></path>
                        <path d="M156.949365,278.240701 L132.145126,263.969314 C131.115477,263.404619 131.290518,262.41897 132.423131,261.772137 L143.862529,255.180604 C145.039633,254.529228 146.456529,254.472104 147.682526,255.026597 L172.476469,269.297983 C173.506118,269.862678 173.331078,270.848328 172.208761,271.495161 L160.759066,278.086693 C159.585607,278.737886 158.171837,278.795038 156.949365,278.240701 L156.949365,278.240701 Z" id="Path" fill="#2B303F" fill-rule="nonzero"></path>
                        <path d="M149.031366,292.614759 L137.046254,285.735746 C136.068088,285.17105 136.181349,284.195668 137.313963,283.538568 L148.753361,276.957303 C149.927417,276.297727 151.346714,276.236691 152.573358,276.793028 L164.568767,283.702843 C165.546933,284.257271 165.423375,285.242921 164.290761,285.900021 L152.851363,292.481286 C151.670963,293.126067 150.254132,293.175572 149.031366,292.614759 L149.031366,292.614759 Z" id="Path" fill="#2B303F" fill-rule="nonzero"></path>
                        <path d="M165.989682,302.399386 L153.994273,295.499838 C153.016107,294.935143 153.139665,293.949493 154.272279,293.302661 L165.711677,286.711128 C166.88878,286.059752 168.305676,286.002628 169.531674,286.55712 L181.516786,293.456668 C182.546434,294.021363 182.371394,295.007013 181.249077,295.653846 L169.799382,302.245378 C168.625924,302.896571 167.212153,302.953723 165.989682,302.399386 Z" id="Path" fill="#2B303F" fill-rule="nonzero"></path>
                        <path d="M182.937701,312.12241 L170.9217,305.253663 C169.892051,304.688968 170.067091,303.713586 171.199705,303.056486 L182.639103,296.475221 C183.814555,295.82054 185.231487,295.759606 186.4591,296.310946 L198.454508,303.220761 C199.484157,303.785456 199.309117,304.760839 198.176503,305.417938 L186.737105,311.999204 C185.56188,312.638706 184.152111,312.684422 182.937701,312.12241 Z" id="Path" fill="#2B303F" fill-rule="nonzero"></path>
                        <path d="M199.88572,321.917304 L187.900608,315.017756 C186.870959,314.453061 187.046,313.467411 188.178613,312.820578 L199.618011,306.229046 C200.79147,305.577853 202.205241,305.520701 203.427712,306.075038 L215.42312,312.974586 C216.401287,313.539281 216.277729,314.524931 215.145115,315.171764 L203.705717,321.763296 C202.528613,322.414672 201.111718,322.471796 199.88572,321.917304 L199.88572,321.917304 Z" id="Path" fill="#2B303F" fill-rule="nonzero"></path>
                        <path d="M216.844036,331.681396 L204.90011,324.781848 C203.921943,324.217153 204.045501,323.231503 205.178115,322.584671 L216.617513,315.993138 C217.794617,315.341762 219.211512,315.284638 220.43751,315.839131 L232.422622,322.738679 C233.400788,323.303374 233.287527,324.289024 232.154913,324.935856 L220.715515,331.517121 C219.527935,332.194116 218.085,332.255343 216.844036,331.681396 Z" id="Path" fill="#2B303F" fill-rule="nonzero"></path>
                        <path d="M233.792055,341.435222 L221.806943,334.535674 C220.828777,333.970979 220.952334,332.985329 222.074652,332.338496 L233.524346,325.746964 C234.697805,325.095771 236.111576,325.038619 237.334047,325.592956 L249.329455,332.492504 C250.307622,333.057199 250.184064,334.042849 249.05145,334.689681 L237.612052,341.281214 C236.434948,341.93259 235.018053,341.989714 233.792055,341.435222 Z" id="Path" fill="#2B303F" fill-rule="nonzero"></path>
                        <path d="M250.75037,351.199314 L238.754962,344.299766 C237.776796,343.735071 237.900354,342.749421 239.032967,342.102589 L250.472365,335.511056 C251.649469,334.85968 253.066365,334.802556 254.292362,335.357048 L266.277474,342.256596 C267.255641,342.821292 267.132083,343.806941 266.009766,344.453774 L254.570368,351.045306 C253.393264,351.696683 251.976368,351.753806 250.75037,351.199314 L250.75037,351.199314 Z" id="Path" fill="#2B303F" fill-rule="nonzero"></path>
                        <path d="M267.708686,360.963407 L255.723574,354.053591 C254.745408,353.488896 254.868966,352.513514 255.991283,351.856414 L267.440977,345.275149 C268.611373,344.615731 270.027564,344.554665 271.250678,345.110874 L283.246086,352.020689 C284.224253,352.575117 284.100695,353.560767 282.968081,354.217866 L271.528683,360.799132 C270.353231,361.453812 268.936299,361.514746 267.708686,360.963407 Z" id="Path" fill="#2B303F" fill-rule="nonzero"></path>
                        <path d="M284.656705,370.717232 L272.661297,363.817684 C271.68313,363.252989 271.806688,362.267339 272.939302,361.620506 L284.3787,355.028974 C285.555804,354.377598 286.972699,354.320474 288.198697,354.874966 L300.183809,361.774514 C301.161975,362.339209 301.038418,363.324859 299.9161,363.971692 L288.466406,370.563224 C287.292947,371.214417 285.879176,371.271569 284.656705,370.717232 L284.656705,370.717232 Z" id="Path" fill="#2B303F" fill-rule="nonzero"></path>
                        <path d="M301.604724,380.481324 L289.619612,373.571509 C288.641446,373.017081 288.765004,372.031432 289.887321,371.374332 L301.337016,364.793066 C302.508819,364.13857 303.922626,364.077606 305.146716,364.628792 L317.131828,371.538607 C318.109995,372.103302 317.986437,373.078684 316.853823,373.735784 L305.414425,380.31705 C304.243087,380.973177 302.828492,381.034175 301.604724,380.481324 Z" id="Path" fill="#2B303F" fill-rule="nonzero"></path>
                        <path d="M318.56304,390.23515 L306.567632,383.335602 C305.589465,382.770907 305.713023,381.785257 306.845637,381.138424 L318.285035,374.546892 C319.462139,373.895516 320.879034,373.838392 322.105032,374.392884 L334.090144,381.292432 C335.06831,381.857127 334.944752,382.842777 333.822435,383.48961 L322.372741,390.081142 C321.199282,390.732335 319.785511,390.789487 318.56304,390.23515 Z" id="Path" fill="#2B303F" fill-rule="nonzero"></path>
                        <path d="M356.495302,412.083718 L323.54654,393.099694 C322.568374,392.534999 322.681635,391.549349 323.814249,390.902517 L335.253647,384.310984 C336.430751,383.659608 337.847646,383.602484 339.073644,384.156977 L372.022405,403.141001 C373.000572,403.695429 372.877014,404.681078 371.7444,405.338178 L360.305002,411.919444 C359.132279,412.570707 357.720027,412.631603 356.495302,412.083718 Z" id="Path" fill="#2B303F" fill-rule="nonzero"></path>
                        <path d="M132.083347,282.881468 L115.732524,273.46646 C114.702876,272.901765 114.877916,271.916115 116.000233,271.269283 L127.449928,264.688017 C128.620324,264.0286 130.036514,263.967533 131.259628,264.523742 L147.610451,273.938751 C148.588617,274.503446 148.465059,275.489095 147.342742,276.135928 L135.913641,282.727461 C134.734733,283.385543 133.311564,283.442766 132.083347,282.881468 Z" id="Path" fill="#2B303F" fill-rule="nonzero"></path>
                        <path d="M422.887056,373.85899 L182.113982,235.251999 C181.084333,234.697571 181.259373,233.711922 182.391987,233.054822 L188.116834,229.769323 C189.288638,229.114826 190.702445,229.053862 191.926535,229.605048 L432.699609,368.212039 C433.677775,368.776734 433.554217,369.752117 432.421603,370.409216 L426.707053,373.725517 C425.526652,374.370298 424.109822,374.419803 422.887056,373.85899 Z" id="Path" fill="#2B303F" fill-rule="nonzero"></path>
                        <path d="M273.732132,389.619119 C273.388324,390.366031 272.800151,390.974252 272.0641,391.344006 L205.816497,429.486596 C203.554913,430.740164 200.831311,430.850626 198.475101,429.784345 L85.2137341,364.59799 C84.7296791,364.347394 84.339671,363.947693 84.1017134,363.458333 C83.6898539,362.431614 84.2664572,361.291957 85.7697444,360.429513 L152.027644,322.276655 C154.289229,321.023088 157.012831,320.912626 159.36904,321.978907 L272.630407,387.165262 C273.57936,387.575449 274.057364,388.640103 273.732132,389.619119 Z" id="Path" fill="#B1B4C4" fill-rule="nonzero"></path>
                        <path d="M273.732132,389.619119 C273.388324,390.366031 272.800151,390.974252 272.0641,391.344006 L205.816497,429.486596 C203.554913,430.740164 200.831311,430.850626 198.475101,429.784345 L85.2137341,364.59799 C84.7296791,364.347394 84.339671,363.947693 84.1017134,363.458333 C84.4527206,362.718894 85.0392044,362.116029 85.7697444,361.743713 L152.027644,323.601122 C154.288035,322.34587 157.010893,322.23163 159.36904,323.293107 L272.630407,388.489728 C273.111248,388.736433 273.49811,389.133009 273.732132,389.619119 L273.732132,389.619119 Z" id="Path" fill="#C3C6D1" fill-rule="nonzero"></path>
                        <path d="M441.214804,363.345393 L200.44173,224.738402 C199.366727,223.945572 198.729497,222.693762 198.722217,221.360499 L198.722217,218.537023 C198.722217,217.23309 199.515047,216.637594 200.493213,217.202289 L441.266287,355.80928 C442.360411,356.586847 443.018013,357.83731 443.037283,359.176917 L443.037283,362.000392 C442.9858,363.314592 442.192971,363.910089 441.214804,363.345393 Z" id="Path" fill="#2B303F" fill-rule="nonzero"></path>
                        <path d="M236.819222,211.052245 L213.034335,197.386623 C210.05865,195.672003 207.638976,191.062037 207.638976,187.119438 L207.638976,161.687622 C207.638976,157.724489 210.05865,155.907197 213.034335,157.580748 L236.819222,171.28744 C239.805204,173.002059 242.214582,177.612025 242.214582,181.554624 L242.214582,206.98644 C242.173396,210.949573 239.764018,212.766865 236.819222,211.052245 Z" id="Path" fill="#E9EAF2" fill-rule="nonzero"></path>
                        <path d="M236.726554,152.806507 L212.982853,139.140885 C210.007168,137.426265 207.587493,130.413778 207.587493,126.984538 L207.587493,97.2918406 C207.587493,93.3287074 210.007168,91.5114158 212.982853,93.1849668 L236.726554,106.850589 C239.712535,108.565209 242.121914,113.175175 242.121914,117.117774 L242.121914,146.810472 C242.121914,150.301314 239.712535,154.521127 236.726554,152.806507 Z" id="Path" fill="#E9EAF2" fill-rule="nonzero"></path>
                        <path d="M224.988558,132.970307 C220.159505,130.1879 216.226246,123.391024 216.226246,117.82621 C216.226246,112.261396 220.159505,109.992348 224.988558,112.774755 C229.817611,115.557162 233.761165,122.354038 233.761165,127.918852 C233.761165,133.483666 229.827907,135.752714 224.988558,132.970307 Z M224.988558,115.362085 C221.395083,113.308649 218.470881,114.9822 218.470881,119.119875 C218.709164,123.706631 221.131263,127.903672 224.988558,130.413778 C228.592328,132.467215 231.516531,130.803931 231.516531,126.666256 C231.279147,122.0739 228.852617,117.871999 224.988558,115.362085 L224.988558,115.362085 Z" id="Shape" fill="#8C50FF" fill-rule="nonzero"></path>
                        <polygon id="Path" fill="#8C50FF" fill-rule="nonzero" points="227.397936 128.853166 223.423492 122.549115 223.423492 117.302583 225.668126 118.596249 225.668126 122.672321 228.88063 127.754577"></polygon>
                        <path d="M236.695664,90.0021396 L212.951963,76.336517 C209.976278,74.61163 207.556604,66.8907072 207.556604,63.4512004 L207.556604,36.1199552 C207.556604,32.6907156 209.976278,31.2943785 212.951963,33.0397998 L236.695664,46.7156896 C239.882229,48.7825927 241.887052,52.2428974 242.091024,56.028026 L242.091024,83.3695384 C242.091024,86.7679765 239.681646,91.7167594 236.695664,90.0021396 Z" id="Path" fill="#E9EAF2" fill-rule="nonzero"></path>
                        <path d="M224.823814,57.2395538 C223.392602,56.418179 222.239395,57.085546 222.239395,58.7385627 C222.335801,60.5535318 223.296226,62.213277 224.823814,63.204788 C226.255026,64.0261628 227.418529,63.3587958 227.418529,61.7160462 C227.314818,59.8979094 226.351953,58.2367406 224.823814,57.2395538 L224.823814,57.2395538 Z M231.732757,58.2662722 L229.67346,57.0752788 C229.339681,56.8483064 229.098571,56.5095275 228.993891,56.1204307 L228.458474,53.9540547 C228.346303,53.565736 228.102481,53.2282597 227.768609,52.9992066 L221.899611,49.6213029 C221.61131,49.4570279 221.312712,49.5288982 221.220043,49.795845 L220.684626,51.3359227 C220.630627,51.4619355 220.521007,51.5558007 220.387925,51.5899819 C220.254843,51.6241631 220.113388,51.5947845 220.005058,51.5104648 L217.94576,50.3194714 C216.998483,49.7650434 216.226246,50.2167996 216.226246,51.3461899 L216.226246,60.2991748 C216.292472,61.5077116 216.930746,62.6129374 217.94576,63.2766583 L231.763647,71.2337263 C232.710924,71.7778871 233.493457,71.3363981 233.493457,70.2070078 L233.493457,61.2232214 C233.417856,60.0043404 232.763817,58.894494 231.732757,58.2354707 L231.732757,58.2662722 Z M224.823814,65.2274233 C222.279429,63.5676789 220.677896,60.8006051 220.509585,57.7734474 C220.509585,55.0218419 222.445325,53.912986 224.823814,55.2887887 C227.374415,56.942664 228.977938,59.7131765 229.138042,62.7427647 C229.138042,65.4533014 227.212599,66.5724245 224.823814,65.1966218 L224.823814,65.2274233 Z M231.125265,61.2950917 C230.773722,61.0670851 230.551982,60.6858633 230.528068,60.2683732 C230.528068,59.8782202 230.795777,59.7242124 231.125265,59.9192889 C231.480733,60.1449984 231.706522,60.5266031 231.732757,60.9460074 C231.732757,61.3053589 231.465049,61.4593666 231.125265,61.2642901 L231.125265,61.2950917 Z" id="Shape" fill="#8C50FF" fill-rule="nonzero"></path>
                        <path d="M232.319657,186.195392 C232.319657,190.825892 225.04004,196.842462 225.04004,196.842462 C225.04004,196.842462 217.750127,182.468404 217.750127,177.807102 C217.750127,173.1458 221.014113,171.297707 225.04004,173.607823 C229.339248,176.407487 232.042978,181.082649 232.319657,186.195392 L232.319657,186.195392 Z" id="Path" fill="#8C50FF" fill-rule="nonzero"></path>
                        <ellipse id="Oval" fill="#E9EAF2" fill-rule="nonzero" transform="translate(225.039695, 181.685974) rotate(-30.000000) translate(-225.039695, -181.685974) " cx="225.039695" cy="181.685974" rx="3.88931031" ry="6.71953115"></ellipse>
                        <path d="M404.78583,248.465866 L261.036562,165.702091 C258.606591,164.316021 256.650258,160.568499 256.650258,157.35487 L256.650258,61.0178777 C256.650258,57.8042489 258.606591,56.3257744 261.036562,57.7221114 L404.78583,140.475619 C407.205505,141.871956 409.161837,145.609211 409.161837,148.833107 L409.161837,245.159832 C409.161837,248.383728 407.205505,249.862203 404.78583,248.465866 Z" id="Path" fill="#E9EAF2" fill-rule="nonzero"></path>
                        <path d="M388.177595,178.4334 L276.759299,114.294298 C274.061619,112.733686 271.868467,108.565209 271.868467,104.981962 L271.868467,97.7230624 C271.868467,94.1295478 274.061619,92.4867983 276.759299,94.0371431 L388.177595,158.176245 C390.875275,159.72659 393.05813,163.895067 393.05813,167.488581 L393.05813,174.747481 C393.05813,178.340995 390.875275,179.983745 388.177595,178.4334 Z" id="Path" fill="#FFFFFF" fill-rule="nonzero"></path>
                        <path d="M327.582763,176.184887 L276.759299,146.923411 C274.061619,145.373066 271.868467,141.204589 271.868467,137.611074 L271.868467,130.393244 C271.868467,126.799729 274.061619,125.156979 276.759299,126.707324 L327.582763,155.9688 C330.280443,157.519145 332.463299,161.687622 332.463299,165.281137 L332.463299,172.4887 C332.463299,176.082215 330.280443,177.735231 327.582763,176.184887 Z" id="Path" fill="#8C50FF" fill-rule="nonzero"></path>
                        <path d="M434.36764,269.657335 C434.36764,269.657335 380.177224,281.567269 336.365668,233.044555 C292.554111,184.52184 256.815002,190.743754 256.815002,190.743754 L256.815002,221.031949 L434.36764,323.241771 L434.36764,269.657335 Z" id="Path" fill="url(#linearGradient-2)" fill-rule="nonzero"></path>
                        <path d="M434.36764,269.657335 C434.36764,269.657335 380.177224,281.567269 336.365668,233.044555 C292.554111,184.52184 256.815002,190.743754 256.815002,190.743754" id="Path" stroke="#CCCEDD" stroke-width="1.06"></path>
                    </g>
                    <g id="Men_12" transform="translate(239.308067, 0.000000)" fill-rule="nonzero">
                        <path d="M23.7838031,45.6086456 C22.2055726,48.4351679 20.2870289,51.0570535 18.0711777,53.4155308 C17.4558141,54.1345861 12.7072583,52.3164036 13.7020962,51.8027927 C14.696934,51.2891818 17.8045202,46.954306 19.3634413,44.0575407 C20.6676471,40.5992048 21.7770459,37.0702857 22.6864047,33.4874289 C23.6607304,29.9435139 24.5017273,24.7457719 25.2196515,22.3009841 C25.5945548,20.4563299 27.0162372,19.0042512 28.8502968,18.5927136 C30.5630588,18.1920971 31.6707133,18.6646191 31.3527754,20.7396071 C30.76818,24.3554276 27.9682756,38.4694544 23.7838031,45.6086456 Z" id="_Контур_" fill="#FFCEA9"></path>
                        <path d="M26.501659,100.924537 C25.0350425,102.126386 22.8607577,101.027259 22.7479411,101.140253 C21.019737,102.744191 19.2087666,104.256282 17.3224853,105.670301 C16.3994399,106.389356 14.9738476,107.354945 15.2712733,108.751966 C15.732796,111.227571 19.7018913,110.467427 21.199276,109.707283 C22.6966608,108.947138 23.927388,107.652839 25.3017,106.810517 C26.327306,106.17364 27.352912,105.855201 27.4657287,104.571174 C27.5580332,103.800758 26.7683166,100.89372 26.501659,100.924537 Z" id="Path" fill="#38226D"></path>
                        <path d="M27.4452166,104.057563 C27.2503514,105.279957 26.2657697,105.61894 25.2606758,106.245545 C23.8248274,107.139228 22.5530759,108.433528 21.0556912,109.193672 C19.5583064,109.953816 16.2250869,110.590693 15.2507612,108.8136 C15.7738203,111.207026 19.6813791,110.457154 21.1582518,109.707283 C22.6351244,108.957411 23.8863637,107.652839 25.2606758,106.810517 C26.2862818,106.17364 27.3118878,105.855201 27.4247044,104.571174 C27.4454391,104.400811 27.4522991,104.22904 27.4452166,104.057563 L27.4452166,104.057563 Z" id="Path" fill="#9C73FF"></path>
                        <path d="M11.5688357,92.3061462 C10.1022191,93.5079956 7.52794804,92.203424 7.41513138,92.3061462 C5.88739132,93.8643525 4.26742532,95.3290782 2.564015,96.692383 C1.6409696,97.4217105 0.21537726,98.3872989 0.512803,99.7740483 C0.9743257,102.259925 4.94342092,101.499781 6.45106174,100.739637 C7.95870256,99.9794926 9.16891764,98.6851932 10.5534857,97.8325992 C11.5790917,97.2059939 12.6046977,96.8772829 12.7175144,95.603528 C12.7995629,94.8331117 11.8354932,92.2753295 11.5688357,92.3061462 Z" id="Path" fill="#38226D"></path>
                        <path d="M12.6662341,95.2645448 C12.471369,96.4869387 11.4867872,96.8259218 10.4816933,97.4525271 C9.04584492,98.34621 7.77409348,99.6405094 6.27670872,100.400654 C4.77932396,101.160798 1.4358484,101.797675 0.47177876,100.020581 C0.99483782,102.414008 4.89214062,101.664136 6.37926932,100.914264 C7.86639802,100.164393 9.09712522,98.8598209 10.4816933,98.0072269 C11.5072993,97.3806216 12.5329053,97.0621829 12.645722,95.7781557 C12.6664567,95.6077926 12.6733167,95.4360223 12.6662341,95.2645448 Z" id="Path" fill="#9C73FF"></path>
                        <path d="M46.15227,53.6620641 C47.7829835,63.8726482 43.2600611,67.6836409 37.3730826,69.8510788 C33.1475859,71.4124558 27.1170226,73.8161547 27.1170226,73.8161547 C27.1170226,73.8161547 27.1990711,76.0554981 27.2400954,81.0786125 C27.2400954,85.5059382 26.7067802,101.623047 26.7067802,101.623047 C25.2907195,102.35252 23.6101745,102.35252 22.1941138,101.623047 C22.1941138,101.623047 19.824964,89.2450254 19.322417,83.6569391 C18.635261,76.0863148 17.4763262,71.1248337 17.8660565,69.4915512 C18.2045065,68.0534407 26.4708909,63.9856426 29.0964422,61.8079325 L11.7739569,67.6220076 C12.1186873,69.5025031 12.2869367,71.4111866 12.2765038,73.3230883 C12.1226629,79.3323355 11.7842129,92.347235 11.7842129,92.347235 C11.7842129,92.347235 9.41506308,94.0626954 7.3843632,92.347235 C7.3843632,92.347235 3.0255377,66.5947858 3.55885282,63.1844096 C4.06139976,59.9486611 19.322417,53.3333531 22.0197608,51.0529208 C22.9675124,50.2814011 24.1977071,49.9490986 25.4042606,50.1386935 L46.15227,53.6620641 Z" id="_Контур_2" fill="#8C50FF"></path>
                        <g id="_Группа_" transform="translate(1.025606, 43.143313)">
                            <g id="_Группа_2">
                                <path d="M3.63064524,14.7714487 L15.2712733,8.04314628 C15.476333,7.9194674 15.7328576,7.9194674 15.9379172,8.04314628 L36.3474766,19.8459241 L24.3786546,26.7693987 L3.63064524,14.7714487 Z" id="_Контур_3" fill="#F4F4F4"></path>
                                <path d="M24.9222258,24.2937943 L25.814503,24.8074052 C25.8862954,24.8074052 25.8760394,24.9203996 25.814503,24.9717607 L24.96325,25.4648271 C24.8754645,25.5057389 24.7741219,25.5057389 24.6863364,25.4648271 L23.7940592,24.9512162 C23.7222668,24.9512162 23.7325228,24.8382218 23.7940592,24.7868607 L24.6453122,24.2937943 C24.7330977,24.2528825 24.8344403,24.2528825 24.9222258,24.2937943 L24.9222258,24.2937943 Z" id="Path" fill="#3A2C6D"></path>
                                <path d="M23.6709865,23.6261002 L24.5530076,24.1294388 C24.6248001,24.1294388 24.614544,24.2527054 24.5530076,24.2937943 L23.7120107,24.7868607 C23.6217402,24.8326251 23.5151116,24.8326251 23.424841,24.7868607 L22.5428199,24.2732499 C22.4710275,24.2732499 22.4812835,24.1602555 22.5428199,24.1088944 L23.3838168,23.6261002 C23.4726674,23.5747214 23.5821359,23.5747214 23.6709865,23.6261002 L23.6709865,23.6261002 Z" id="Path" fill="#3A2C6D"></path>
                                <path d="M22.399235,22.8351394 L23.2812562,23.3487503 C23.3530486,23.3487503 23.3530486,23.4617447 23.2812562,23.5131058 L22.4402593,23.9959 C22.3499887,24.0416643 22.2433602,24.0416643 22.1530896,23.9959 L21.2710684,23.4822891 C21.199276,23.4822891 21.2095321,23.3692947 21.2710684,23.3179337 L22.1120654,22.8248672 C22.2039612,22.7822989 22.3106053,22.7861136 22.399235,22.8351394 L22.399235,22.8351394 Z" id="Path" fill="#3A2C6D"></path>
                                <path d="M21.1582518,22.1160842 L22.0402729,22.6296951 C22.1120654,22.6296951 22.1120654,22.7426895 22.0402729,22.7940506 L21.199276,23.287117 C21.1079956,23.3284268 21.0033867,23.3284268 20.9121063,23.287117 L20.0300852,22.7735061 C19.9582928,22.7735061 19.9685488,22.6605117 20.0300852,22.6091506 L20.8710821,22.1160842 C20.9623625,22.0747744 21.0669714,22.0747744 21.1582518,22.1160842 L21.1582518,22.1160842 Z" id="Path" fill="#3A2C6D"></path>
                                <path d="M19.8967564,21.3867568 L20.7890336,21.9003676 C20.860826,21.9003676 20.85057,22.0236343 20.7890336,22.0647231 L19.9377806,22.5577896 C19.8511054,22.6034513 19.7475423,22.6034513 19.660867,22.5577896 L18.7685898,22.0441787 C18.6967974,22.0441787 18.7070534,21.9311843 18.7685898,21.8798232 L19.6198428,21.397029 C19.7048195,21.348117 19.8084001,21.3442746 19.8967564,21.3867568 Z" id="Path" fill="#3A2C6D"></path>
                                <path d="M18.6455171,20.6677015 L19.5377943,21.1813124 C19.6095867,21.1813124 19.5993307,21.2943068 19.5377943,21.3456679 L18.6865413,21.8284621 C18.5998661,21.8741238 18.4963029,21.8741238 18.4096277,21.8284621 L17.5173505,21.3148512 C17.4455581,21.3148512 17.4558141,21.2018569 17.5173505,21.160768 L18.3686035,20.6677015 C18.4552787,20.6220398 18.5588418,20.6220398 18.6455171,20.6677015 L18.6455171,20.6677015 Z" id="Path" fill="#3A2C6D"></path>
                                <path d="M17.435302,19.9383741 L18.3173232,20.451985 C18.3891156,20.451985 18.3788595,20.5649794 18.3173232,20.6163405 L17.4763262,21.1094069 C17.3850459,21.1507167 17.2804369,21.1507167 17.1891566,21.1094069 L16.3071354,20.595796 C16.235343,20.595796 16.235343,20.4828016 16.3071354,20.4314405 L17.1481323,19.9383741 C17.2394127,19.8970643 17.3440216,19.8970643 17.435302,19.9383741 L17.435302,19.9383741 Z" id="Path" fill="#3A2C6D"></path>
                                <path d="M16.1327824,19.2090467 L17.0250596,19.7226575 C17.096852,19.7226575 17.086596,19.8459241 17.0250596,19.887013 L16.1738066,20.3800795 C16.0871314,20.4257412 15.9835682,20.4257412 15.896893,20.3800795 L15.0046158,19.8664686 C14.9328234,19.8664686 14.9430794,19.7534742 15.0046158,19.7021131 L15.8558688,19.2193189 C15.9408455,19.1704069 16.044426,19.1665645 16.1327824,19.2090467 L16.1327824,19.2090467 Z" id="Path" fill="#3A2C6D"></path>
                                <path d="M14.8815431,18.4899914 L15.7635642,19.0036023 C15.8353566,19.0036023 15.8251006,19.1165967 15.7635642,19.1679578 L14.9225673,19.650752 C14.8322967,19.6965163 14.7256682,19.6965163 14.6353976,19.650752 L13.7533765,19.1371411 C13.681584,19.1371411 13.6918401,19.0241467 13.7533765,18.9830579 L14.5943734,18.4899914 C14.6846439,18.4442271 14.7912725,18.4442271 14.8815431,18.4899914 L14.8815431,18.4899914 Z" id="Path" fill="#3A2C6D"></path>
                                <path d="M13.6200477,17.760664 L14.5123249,18.2742749 C14.5841173,18.2742749 14.5738613,18.3872693 14.5123249,18.4386304 L13.6610719,18.9316968 C13.5732864,18.9726086 13.4719438,18.9726086 13.3841583,18.9316968 L12.4918811,18.4180859 C12.4200887,18.4180859 12.4303447,18.3050915 12.4918811,18.2537304 L13.3431341,17.760664 C13.4298093,17.7150023 13.5333724,17.7150023 13.6200477,17.760664 Z" id="Path" fill="#3A2C6D"></path>
                                <path d="M12.3688084,17.0313366 L13.2508295,17.5449474 C13.3226219,17.5449474 13.3226219,17.6579418 13.2508295,17.7093029 L12.4098326,18.2023694 C12.319562,18.2481337 12.2129335,18.2481337 12.1226629,18.2023694 L11.2406418,17.6887585 C11.1688493,17.6887585 11.1791054,17.5757641 11.2406418,17.524403 L12.0816387,17.0416088 C12.1702684,16.992583 12.2769126,16.9887683 12.3688084,17.0313366 L12.3688084,17.0313366 Z" id="Path" fill="#3A2C6D"></path>
                                <path d="M11.117569,16.3122813 L11.9995902,16.8258922 C12.0713826,16.8258922 12.0611266,16.9388866 11.9995902,16.9902477 L11.1483372,17.4730419 C11.061662,17.5187036 10.9580988,17.5187036 10.8714236,17.4730419 L9.97914638,16.959431 C9.90735396,16.959431 9.91761002,16.8464366 9.97914638,16.7950756 L10.8303994,16.3122813 C10.9206699,16.266517 11.0272985,16.266517 11.117569,16.3122813 Z" id="Path" fill="#3A2C6D"></path>
                                <path d="M9.85607366,15.5829539 L10.7483509,16.0965648 C10.8201433,16.0965648 10.8098872,16.2095592 10.7483509,16.2609203 L9.8970979,16.7437145 C9.81042265,16.7893762 9.70685952,16.7893762 9.62018428,16.7437145 L8.72790706,16.2301036 C8.65611464,16.2301036 8.6663707,16.106837 8.72790706,16.0657481 L9.57916004,15.5726817 C9.66751638,15.5301995 9.77109696,15.5340419 9.85607366,15.5829539 L9.85607366,15.5829539 Z" id="Path" fill="#3A2C6D"></path>
                                <path d="M7.9997268,14.5043711 L9.4868555,15.3672373 C9.55864792,15.3672373 9.54839186,15.4802317 9.4868555,15.5315928 L8.64585858,16.0246592 C8.55457821,16.0659691 8.44996927,16.0659691 8.3586889,16.0246592 L6.8715602,15.161793 C6.79976778,15.161793 6.79976778,15.0487986 6.8715602,14.9974375 L7.71255712,14.5043711 C7.80383749,14.4630612 7.90844643,14.4630612 7.9997268,14.5043711 L7.9997268,14.5043711 Z" id="Path" fill="#3A2C6D"></path>
                                <path d="M24.276094,22.5167007 L25.1683712,23.0303116 C25.2401637,23.0303116 25.2299076,23.143306 25.1683712,23.194667 L24.3171183,23.6774613 C24.2320485,23.7292266 24.1252744,23.7292266 24.0402046,23.6774613 L23.1479274,23.1741226 C23.076135,23.1741226 23.0863911,23.050856 23.1479274,23.0097671 L23.9991804,22.5167007 C24.0858556,22.471039 24.1894188,22.471039 24.276094,22.5167007 L24.276094,22.5167007 Z" id="Path" fill="#3A2C6D"></path>
                                <path d="M23.0248547,21.7873732 L23.9068759,22.3009841 C23.9786683,22.3009841 23.9684122,22.4139785 23.9068759,22.4653396 L23.0658789,22.958406 C22.9745986,22.9997159 22.8699896,22.9997159 22.7787093,22.958406 L21.8966881,22.4447952 C21.8248957,22.4447952 21.8248957,22.3318008 21.8966881,22.2804397 L22.737685,21.7873732 C22.8279556,21.7416089 22.9345841,21.7416089 23.0248547,21.7873732 L23.0248547,21.7873732 Z" id="Path" fill="#3A2C6D"></path>
                                <path d="M21.7633593,21.0580458 L22.6453805,21.5716567 C22.727429,21.5716567 22.7171729,21.6846511 22.6453805,21.7360122 L21.8043836,22.2290786 C21.7131032,22.2703884 21.6084942,22.2703884 21.5172139,22.2290786 L20.6351927,21.7154677 C20.5634003,21.7154677 20.5736564,21.6024733 20.6351927,21.5511122 L21.4761896,21.0580458 C21.56747,21.016736 21.6720789,21.016736 21.7633593,21.0580458 Z" id="Path" fill="#3A2C6D"></path>
                                <path d="M20.51212,20.3287184 L21.4043972,20.8423292 C21.4761896,20.8423292 21.4659336,20.9655959 21.4043972,21.0066847 L20.5531442,21.4997512 C20.466469,21.5454129 20.3629059,21.5454129 20.2762306,21.4997512 L19.3839534,20.9861403 C19.312161,20.9861403 19.322417,20.8731459 19.3839534,20.8217848 L20.2352064,20.3389906 C20.3201831,20.2900786 20.4237637,20.2862362 20.51212,20.3287184 L20.51212,20.3287184 Z" id="Path" fill="#3A2C6D"></path>
                                <path d="M19.2608807,19.6096631 L20.1429018,20.123274 C20.2146943,20.123274 20.2044382,20.2362684 20.1429018,20.2876295 L19.3019049,20.7806959 C19.2106245,20.8220058 19.1060156,20.8220058 19.0147352,20.7806959 L18.1327141,20.2670851 C18.0609217,20.2670851 18.0609217,20.1540907 18.1327141,20.1027296 L18.973711,19.6096631 C19.0649914,19.5683533 19.1696003,19.5683533 19.2608807,19.6096631 L19.2608807,19.6096631 Z" id="Path" fill="#3A2C6D"></path>
                                <path d="M17.9993853,18.8803357 L18.8916625,19.3939466 C18.9634549,19.3939466 18.9531989,19.5172132 18.8916625,19.5583021 L18.0404095,20.0513685 C17.9537343,20.0970302 17.8501712,20.0970302 17.7634959,20.0513685 L16.8712187,19.5377576 C16.7994263,19.5377576 16.8096823,19.4247632 16.8712187,19.3734021 L17.7224717,18.8906079 C17.8074484,18.8416959 17.911029,18.8378535 17.9993853,18.8803357 L17.9993853,18.8803357 Z" id="Path" fill="#3A2C6D"></path>
                                <path d="M16.7378899,18.1612805 L17.6301671,18.6748914 C17.7019596,18.6748914 17.6917035,18.7878857 17.6301671,18.8289746 L16.7789142,19.3220411 C16.6922389,19.3677028 16.5886758,19.3677028 16.5020005,19.3220411 L15.6097233,18.8084302 C15.5379309,18.8084302 15.548187,18.6954358 15.6097233,18.6440747 L16.4609763,18.1612805 C16.5476515,18.1156188 16.6512147,18.1156188 16.7378899,18.1612805 L16.7378899,18.1612805 Z" id="Path" fill="#3A2C6D"></path>
                                <path d="M15.4866506,17.4627697 L16.3686718,17.9763806 C16.4404642,17.9763806 16.4302081,18.089375 16.3686718,18.140736 L15.5276748,18.6235303 C15.4374043,18.6692946 15.3307757,18.6692946 15.2405052,18.6235303 L14.358484,18.1099194 C14.2866916,18.1099194 14.2969476,17.996925 14.358484,17.9558361 L15.1994809,17.4627697 C15.2897515,17.4170054 15.39638,17.4170054 15.4866506,17.4627697 L15.4866506,17.4627697 Z" id="Path" fill="#3A2C6D"></path>
                                <path d="M14.2251552,16.7026256 L15.1174324,17.2162365 C15.1892249,17.2162365 15.1789688,17.3292309 15.1174324,17.380592 L14.2661795,17.8633862 C14.1795042,17.9090479 14.0759411,17.9090479 13.9892658,17.8633862 L13.0969886,17.3497753 C13.0251962,17.3497753 13.0354523,17.2265087 13.0969886,17.1854198 L13.9482416,16.6923534 C14.0365979,16.6498712 14.1401785,16.6537136 14.2251552,16.7026256 L14.2251552,16.7026256 Z" id="Path" fill="#3A2C6D"></path>
                                <path d="M12.9739159,15.9732982 L13.8559371,16.486909 C13.9277295,16.486909 13.9174734,16.5999034 13.8559371,16.6512645 L13.0046841,17.144331 C12.9168986,17.1852428 12.815556,17.1852428 12.7277705,17.144331 L11.8354932,16.6307201 C11.7637008,16.6307201 11.7739569,16.5177257 11.8354932,16.4663646 L12.6867462,15.9732982 C12.7780266,15.9319883 12.8826355,15.9319883 12.9739159,15.9732982 L12.9739159,15.9732982 Z" id="Path" fill="#3A2C6D"></path>
                                <path d="M11.7124205,15.2439707 L12.5944417,15.7575816 C12.6662341,15.7575816 12.6662341,15.870576 12.5944417,15.9219371 L11.7534448,16.4150035 C11.6631742,16.4607678 11.5565456,16.4607678 11.4662751,16.4150035 L10.5842539,15.9013926 C10.5124615,15.9013926 10.5227176,15.7883982 10.5842539,15.7370372 L11.4252508,15.2439707 C11.5165312,15.2026609 11.6211401,15.2026609 11.7124205,15.2439707 L11.7124205,15.2439707 Z" id="Path" fill="#3A2C6D"></path>
                                <path d="M10.4509251,14.5249155 L11.3432024,15.0282542 C11.4149948,15.0282542 11.4047387,15.1515208 11.3432024,15.1926096 L10.4919494,15.6856761 C10.4052741,15.7313378 10.301711,15.7313378 10.2150358,15.6856761 L9.32275854,15.1720652 C9.25096612,15.1720652 9.26122218,15.0590708 9.32275854,15.0077097 L10.1740115,14.5249155 C10.2590812,14.4731502 10.3658554,14.4731502 10.4509251,14.5249155 Z" id="Path" fill="#3A2C6D"></path>
                                <path d="M25.5375894,23.2460281 L27.0247181,24.1088944 C27.0965105,24.1088944 27.0965105,24.2218888 27.0247181,24.2732499 L26.1837212,24.7560441 C26.0934506,24.8018084 25.9868221,24.8018084 25.8965515,24.7560441 L24.4094228,23.8931778 C24.3376304,23.8931778 24.3478864,23.7801834 24.4094228,23.7288223 L25.2504197,23.2460281 C25.3406903,23.2002638 25.4473188,23.2002638 25.5375894,23.2460281 L25.5375894,23.2460281 Z" id="Path" fill="#3A2C6D"></path>
                                <path d="M8.06126316,14.4632822 L8.94328432,14.9768931 C9.02755268,15.017475 9.12567351,15.017475 9.20994188,14.9768931 L10.1022191,14.45301 C10.1343773,14.4410546 10.1557159,14.4103244 10.1557159,14.3759683 C10.1557159,14.3416123 10.1343773,14.3108821 10.1022191,14.2989267 L10.0304267,14.2989267 C9.96889032,14.2989267 9.96889032,14.2064768 10.0304267,14.1653879 L10.9739842,13.6209604 C11.0560327,13.6209604 11.0560327,13.507966 10.9739842,13.4668771 L10.4099009,13.1381661 C10.3256325,13.0975842 10.2275117,13.0975842 10.1432433,13.1381661 L9.26122218,13.651777 L9.0766131,13.7544992 L8.94328432,13.8366769 L8.80995554,13.9085825 L8.0510071,14.3502878 C8.02375188,14.3846528 8.02826753,14.4344032 8.06126316,14.4632822 L8.06126316,14.4632822 Z" id="Path" fill="#3A2C6D"></path>
                                <path d="M29.742574,21.4792067 L30.6348512,21.9928176 C30.7066436,21.9928176 30.6963876,22.105812 30.6348512,22.1571731 L29.7835982,22.6399673 C29.6985285,22.6917326 29.5917543,22.6917326 29.5066846,22.6399673 L28.6144074,22.1366286 C28.542615,22.0852676 28.552871,22.013362 28.6144074,21.9722732 L29.4656604,21.4792067 C29.5523356,21.433545 29.6558988,21.433545 29.742574,21.4792067 Z" id="Path" fill="#3A2C6D"></path>
                                <path d="M28.5323589,20.7498793 L29.4246361,21.2634902 C29.4964286,21.2634902 29.4861725,21.3867568 29.4246361,21.4278456 L28.5733832,21.9209121 C28.4867079,21.9665738 28.3831448,21.9665738 28.2964695,21.9209121 L27.4041923,21.4073012 C27.3323999,21.4073012 27.342656,21.2943068 27.4041923,21.2429457 L28.2554453,20.7601515 C28.340422,20.7112395 28.4440026,20.7073971 28.5323589,20.7498793 L28.5323589,20.7498793 Z" id="Path" fill="#3A2C6D"></path>
                                <path d="M27.2811196,20.0308241 L28.1733968,20.5444349 C28.2451892,20.5444349 28.2349332,20.6574293 28.1733968,20.7087904 L27.3221438,21.1915846 C27.2354686,21.2372463 27.1319055,21.2372463 27.0452302,21.1915846 L26.152953,20.6779738 C26.0811606,20.6779738 26.0914166,20.5547072 26.152953,20.5136183 L27.004206,20.0205518 C27.0925623,19.9780697 27.1961429,19.981912 27.2811196,20.0308241 Z" id="Path" fill="#3A2C6D"></path>
                                <path d="M16.6250733,13.8674936 L17.5070944,14.3811045 C17.5788868,14.3811045 17.5686308,14.4940988 17.5070944,14.5454599 L16.6660975,15.0282542 C16.5758269,15.0740185 16.4691984,15.0740185 16.3789278,15.0282542 L15.4969067,14.5146433 C15.4148582,14.5146433 15.4251142,14.4016489 15.4969067,14.3502878 L16.3379036,13.8674936 C16.4281741,13.8217293 16.5348027,13.8217293 16.6250733,13.8674936 L16.6250733,13.8674936 Z" id="Path" fill="#3A2C6D"></path>
                                <path d="M15.38409,13.1381661 L16.2763672,13.651777 C16.3481596,13.651777 16.3379036,13.7647714 16.2763672,13.8161325 L15.4251142,14.3091989 C15.3373287,14.3501107 15.2359861,14.3501107 15.1482006,14.3091989 L14.2559234,13.7955881 C14.184131,13.7955881 14.194387,13.6825937 14.2559234,13.6312326 L15.1071764,13.1381661 C15.1949619,13.0972543 15.2963045,13.0972543 15.38409,13.1381661 Z" id="Path" fill="#3A2C6D"></path>
                                <path d="M14.1123386,12.4191109 L15.0046158,12.9327218 C15.0764082,12.9327218 15.0661521,13.0457162 15.0046158,13.0970773 L14.1533628,13.5798715 C14.0666876,13.6255332 13.9631244,13.6255332 13.8764492,13.5798715 L12.984172,13.0662606 C12.9123795,13.0662606 12.9226356,12.9532662 12.984172,12.9121774 L13.8354249,12.4191109 C13.9221002,12.3734492 14.0256633,12.3734492 14.1123386,12.4191109 L14.1123386,12.4191109 Z" id="Path" fill="#3A2C6D"></path>
                                <path d="M12.8610992,11.6897835 L13.7533765,12.2033944 C13.8251689,12.2033944 13.8149128,12.3163887 13.7533765,12.3677498 L12.9021235,12.8608163 C12.814338,12.9017281 12.7129954,12.9017281 12.6252099,12.8608163 L11.7329326,12.3472054 C11.6611402,12.3472054 11.6713963,12.234211 11.7329326,12.1828499 L12.5841856,11.6897835 C12.6719711,11.6488717 12.7733137,11.6488717 12.8610992,11.6897835 Z" id="Path" fill="#3A2C6D"></path>
                                <path d="M25.7119424,19.1165967 L26.9221575,19.8151075 C26.9939499,19.8151075 26.9836939,19.9383741 26.9221575,19.979463 L26.0709045,20.4725294 C25.9842293,20.5181911 25.8806661,20.5181911 25.7939909,20.4725294 L24.614544,19.7842908 C24.5427516,19.7842908 24.5427516,19.6712965 24.614544,19.6199354 L25.4555409,19.1268689 C25.5365977,19.090928 25.6282784,19.087255 25.7119424,19.1165967 Z" id="Path" fill="#3A2C6D"></path>
                                <path d="M17.8763126,14.5865488 L19.0865277,15.2850596 C19.1583201,15.2850596 19.148064,15.398054 19.0865277,15.4494151 L18.2352747,15.9424815 C18.1474892,15.9833933 18.0461466,15.9833933 17.9583611,15.9424815 L16.748146,15.2439707 C16.6763536,15.2439707 16.6763536,15.1309763 16.748146,15.0796152 L17.5891429,14.5865488 C17.6804233,14.545239 17.7850322,14.545239 17.8763126,14.5865488 L17.8763126,14.5865488 Z" id="Path" fill="#3A2C6D"></path>
                                <path d="M19.486514,15.5007762 L25.3837485,18.9111524 C25.4555409,18.9111524 25.4452849,19.0241467 25.3837485,19.0755078 L24.5427516,19.5583021 C24.452481,19.6040664 24.3458525,19.6040664 24.2555819,19.5583021 L18.3583474,16.1479259 C18.286555,16.1479259 18.296811,16.0349315 18.3583474,15.9938426 L19.2096004,15.5007762 C19.2962756,15.4551144 19.3998388,15.4551144 19.486514,15.5007762 L19.486514,15.5007762 Z" id="Path" fill="#3A2C6D"></path>
                                <path d="M25.1581152,21.5716567 L26.0401363,22.0852676 C26.1119288,22.0852676 26.1016727,22.1982619 26.0401363,22.249623 L25.1991394,22.7426895 C25.107859,22.7839993 25.0032501,22.7839993 24.9119697,22.7426895 L24.0299486,22.2290786 C23.9581562,22.2290786 23.9581562,22.1160842 24.0299486,22.0647231 L24.8709455,21.5716567 C24.9622259,21.5303468 25.0668348,21.5303468 25.1581152,21.5716567 L25.1581152,21.5716567 Z" id="Path" fill="#3A2C6D"></path>
                                <path d="M23.8966198,20.8834181 L24.788897,21.397029 C24.8606894,21.397029 24.8504334,21.5202956 24.788897,21.5613845 L23.937644,22.0544509 C23.8509688,22.1001126 23.7474057,22.1001126 23.6607304,22.0544509 L22.7684532,21.54084 C22.6966608,21.54084 22.7069168,21.4278456 22.7684532,21.3764845 L23.6197062,20.8936903 C23.7046829,20.8447783 23.8082635,20.8409359 23.8966198,20.8834181 L23.8966198,20.8834181 Z" id="Path" fill="#3A2C6D"></path>
                                <path d="M22.6453805,20.1643629 L23.5376577,20.6779738 C23.6094501,20.6779738 23.5991941,20.7909682 23.5376577,20.8423292 L22.6864047,21.3251235 C22.5961342,21.3708878 22.4895056,21.3708878 22.399235,21.3251235 L21.5172139,20.8115126 C21.4454215,20.7601515 21.4556775,20.688246 21.5172139,20.6471571 L22.3684669,20.1540907 C22.4568232,20.1116085 22.5604038,20.1154509 22.6453805,20.1643629 Z" id="Path" fill="#3A2C6D"></path>
                                <path d="M21.3941412,19.4350354 L22.2761623,19.9486463 C22.3479547,19.9486463 22.3376987,20.0616407 22.2761623,20.1130018 L21.4351654,20.6060682 C21.343885,20.6473781 21.2392761,20.6473781 21.1479957,20.6060682 L20.2659746,20.0924574 C20.1941821,20.0924574 20.2044382,19.979463 20.2659746,19.9281019 L21.1069715,19.4350354 C21.1982518,19.3937256 21.3028608,19.3937256 21.3941412,19.4350354 L21.3941412,19.4350354 Z" id="Path" fill="#3A2C6D"></path>
                                <path d="M20.1326458,18.7159802 L21.024923,19.2295911 C21.0967154,19.2295911 21.0864594,19.3425855 21.024923,19.3939466 L20.17367,19.8767408 C20.0869948,19.9224025 19.9834316,19.9224025 19.8967564,19.8767408 L19.0044792,19.3631299 C18.9326868,19.3631299 18.9429428,19.2501355 19.0044792,19.1987744 L19.8557322,18.7159802 C19.9424074,18.6703185 20.0459705,18.6703185 20.1326458,18.7159802 L20.1326458,18.7159802 Z" id="Path" fill="#3A2C6D"></path>
                                <path d="M18.8814065,17.9866528 L19.7736837,18.5002637 C19.8454761,18.5002637 19.83522,18.6132581 19.7736837,18.6646191 L18.9224307,19.1576856 C18.8346452,19.1985974 18.7333026,19.1985974 18.6455171,19.1576856 L17.7532399,18.6440747 C17.6814474,18.6440747 17.6917035,18.5310803 17.7532399,18.4797192 L18.6044928,17.9866528 C18.6922783,17.945741 18.793621,17.945741 18.8814065,17.9866528 Z" id="Path" fill="#3A2C6D"></path>
                                <path d="M17.6301671,17.2573253 L18.5121883,17.7709362 C18.5839807,17.7709362 18.5839807,17.8942028 18.5121883,17.9352917 L17.6711914,18.4283581 C17.5809208,18.4741225 17.4742923,18.4741225 17.3840217,18.4283581 L16.5020005,17.9147473 C16.4302081,17.9147473 16.4404642,17.8017529 16.5020005,17.7503918 L17.3429975,17.2675976 C17.4316272,17.2185718 17.5382713,17.2147571 17.6301671,17.2573253 L17.6301671,17.2573253 Z" id="Path" fill="#3A2C6D"></path>
                                <path d="M16.409696,16.5382701 L17.2917172,17.051881 C17.3635096,17.051881 17.3532535,17.1648754 17.2917172,17.2162365 L16.4507202,17.6990307 C16.3618696,17.7504094 16.2524012,17.7504094 16.1635506,17.6990307 L15.2815294,17.195692 C15.209737,17.195692 15.209737,17.0724254 15.2815294,17.0313366 L16.1225263,16.5382701 C16.2127969,16.4925058 16.3194254,16.4925058 16.409696,16.5382701 Z" id="Path" fill="#3A2C6D"></path>
                                <path d="M15.1174324,15.8089427 L16.0097097,16.3225536 C16.0815021,16.3225536 16.071246,16.4355479 16.0097097,16.486909 L15.1584567,16.9799755 C15.0706712,17.0208873 14.9693286,17.0208873 14.8815431,16.9799755 L13.9892658,16.4663646 C13.9174734,16.4663646 13.9277295,16.3533702 13.9892658,16.3020091 L14.8405188,15.8089427 C14.9283043,15.7680309 15.0296469,15.7680309 15.1174324,15.8089427 L15.1174324,15.8089427 Z" id="Path" fill="#3A2C6D"></path>
                                <path d="M13.8661931,15.0898875 L14.7482143,15.6034983 C14.8302628,15.6034983 14.8200067,15.7164927 14.7482143,15.7575816 L13.8969613,16.250648 C13.8066907,16.2964124 13.7000622,16.2964124 13.6097916,16.250648 L12.7277705,15.7370372 C12.655978,15.7370372 12.6662341,15.6240428 12.7277705,15.5726817 L13.5687674,15.0898875 C13.6617975,15.0405783 13.773163,15.0405783 13.8661931,15.0898875 L13.8661931,15.0898875 Z" id="Path" fill="#3A2C6D"></path>
                                <path d="M12.6149538,14.3811045 L13.496975,14.8947153 C13.5687674,14.8947153 13.5585113,15.0077097 13.496975,15.0590708 L12.655978,15.5521372 C12.5646977,15.5934471 12.4600887,15.5934471 12.3688084,15.5521372 L11.4867872,15.0385264 C11.4149948,15.0385264 11.4252508,14.925532 11.4867872,14.8741709 L12.307272,14.3811045 C12.4030034,14.3280905 12.5192224,14.3280905 12.6149538,14.3811045 Z" id="Path" fill="#3A2C6D"></path>
                                <path d="M11.3534584,13.6312326 L12.2457356,14.1448435 C12.3175281,14.1448435 12.307272,14.2681101 12.2457356,14.3091989 L11.3944827,14.8022654 C11.3078074,14.8479271 11.2042443,14.8479271 11.117569,14.8022654 L10.2252918,14.2886545 C10.1534994,14.2886545 10.1637555,14.1756601 10.2252918,14.124299 L11.0765448,13.6415048 C11.1615215,13.5925928 11.2651021,13.5887504 11.3534584,13.6312326 Z" id="Path" fill="#3A2C6D"></path>
                                <path d="M26.4093545,22.342073 L28.2451892,23.3692947 C28.3169817,23.3692947 28.3067256,23.4822891 28.2451892,23.5336502 L27.3939363,24.0267167 C27.3061508,24.0676285 27.2048081,24.0676285 27.1170226,24.0267167 L25.2811879,22.9994949 C25.2093955,22.9994949 25.2196515,22.8865005 25.2811879,22.8351394 L26.1221848,22.3523452 C26.2108145,22.3033194 26.3174587,22.2995047 26.4093545,22.342073 Z" id="Path" fill="#3A2C6D"></path>
                                <path d="M26.9939499,21.2737624 L27.8759711,21.7873732 C27.9580196,21.7873732 27.9477635,21.9003676 27.8759711,21.9414565 L27.0349742,22.4345229 C26.9447036,22.4802873 26.838075,22.4802873 26.7478045,22.4345229 L25.8657833,21.9209121 C25.7939909,21.9209121 25.804247,21.8079177 25.8657833,21.7565566 L26.7067802,21.2737624 C26.7970508,21.227998 26.9036794,21.227998 26.9939499,21.2737624 L26.9939499,21.2737624 Z" id="Path" fill="#3A2C6D"></path>
                                <path d="M25.7427106,20.5444349 L26.6247318,21.0580458 C26.6965242,21.0580458 26.6862681,21.1710402 26.6247318,21.2224013 L25.7837348,21.7154677 C25.6924545,21.7567776 25.5878455,21.7567776 25.4965652,21.7154677 L24.614544,21.2018569 C24.5427516,21.2018569 24.5530076,21.0888625 24.614544,21.0375014 L25.4555409,20.5444349 C25.5458115,20.4986706 25.65244,20.4986706 25.7427106,20.5444349 L25.7427106,20.5444349 Z" id="Path" fill="#3A2C6D"></path>
                                <path d="M24.4812152,19.8151075 L25.3734924,20.3287184 C25.4452849,20.3287184 25.4350288,20.451985 25.3734924,20.4930738 L24.5222395,20.9861403 C24.4355642,21.031802 24.3320011,21.031802 24.2453258,20.9861403 L23.3530486,20.4725294 C23.2812562,20.4725294 23.2915123,20.359535 23.3530486,20.3081739 L24.2043016,19.8253797 C24.2892783,19.7764677 24.3928589,19.7726253 24.4812152,19.8151075 L24.4812152,19.8151075 Z" id="Path" fill="#3A2C6D"></path>
                                <path d="M23.2299759,19.0960523 L24.1222531,19.6096631 C24.1940455,19.6096631 24.1837895,19.7226575 24.1222531,19.7740186 L23.2710001,20.2568128 C23.1859304,20.3085782 23.0791562,20.3085782 22.9940865,20.2568128 L22.1018093,19.7534742 C22.0300169,19.7021131 22.0402729,19.6302076 22.1018093,19.5891187 L22.9530623,19.0960523 C23.0397375,19.0503906 23.1433007,19.0503906 23.2299759,19.0960523 L23.2299759,19.0960523 Z" id="Path" fill="#3A2C6D"></path>
                                <path d="M21.9787366,18.3667248 L22.8607577,18.8803357 C22.9325502,18.8803357 22.9325502,18.9933301 22.8607577,19.0446912 L22.0197608,19.5377576 C21.9284804,19.5790675 21.8238715,19.5790675 21.7325911,19.5377576 L20.85057,19.0241467 C20.7787776,19.0241467 20.7890336,18.9111524 20.85057,18.8597913 L21.6915669,18.3667248 C21.7828473,18.325415 21.8874562,18.325415 21.9787366,18.3667248 L21.9787366,18.3667248 Z" id="Path" fill="#3A2C6D"></path>
                                <path d="M20.7274973,17.6476696 L21.6095184,18.1612805 C21.6813108,18.1612805 21.6710548,18.2742749 21.6095184,18.3153637 L20.7685215,18.8084302 C20.6782509,18.8541945 20.5716224,18.8541945 20.4813518,18.8084302 L19.5993307,18.2948193 C19.5275382,18.2948193 19.5275382,18.1818249 19.5993307,18.1304638 L20.4403276,17.6476696 C20.5305981,17.6019053 20.6372267,17.6019053 20.7274973,17.6476696 Z" id="Path" fill="#3A2C6D"></path>
                                <path d="M19.486514,16.9183422 L20.3787912,17.431953 C20.4505836,17.431953 20.4403276,17.5449474 20.3787912,17.5963085 L19.5275382,18.089375 C19.4397527,18.1302868 19.3384101,18.1302868 19.2506246,18.089375 L18.3583474,17.5757641 C18.286555,17.5757641 18.296811,17.4627697 18.3583474,17.4114086 L19.2096004,16.9183422 C19.2973859,16.8774304 19.3987285,16.8774304 19.486514,16.9183422 Z" id="Path" fill="#3A2C6D"></path>
                                <path d="M18.2147626,16.1890147 L19.1070398,16.7026256 C19.1788322,16.7026256 19.1685761,16.8258922 19.1070398,16.8669811 L18.2557868,17.3600475 C18.1691116,17.4057092 18.0655484,17.4057092 17.9788732,17.3600475 L17.086596,16.8464366 C17.0148035,16.8464366 17.0250596,16.7334423 17.086596,16.6820812 L17.9378489,16.1992869 C18.0228256,16.1503749 18.1264062,16.1465326 18.2147626,16.1890147 Z" id="Path" fill="#3A2C6D"></path>
                                <path d="M16.9635232,15.4699595 L17.8455444,15.9835704 C17.9173368,15.9835704 17.9070808,16.0965648 17.8455444,16.1479259 L17.0045475,16.6307201 C16.9142769,16.6764844 16.8076484,16.6764844 16.7173778,16.6307201 L15.8353566,16.1171092 C15.7635642,16.1171092 15.7738203,15.9938426 15.8353566,15.9527537 L16.6763536,15.4596873 C16.7682494,15.417119 16.8748935,15.4209337 16.9635232,15.4699595 L16.9635232,15.4699595 Z" id="Path" fill="#3A2C6D"></path>
                                <path d="M15.7122839,14.7406321 L16.5943051,15.2542429 C16.6660975,15.2542429 16.6558414,15.3672373 16.5943051,15.4185984 L15.7533082,15.9116649 C15.6620278,15.9529747 15.5574188,15.9529747 15.4661385,15.9116649 L14.5841173,15.398054 C14.5020688,15.398054 14.5123249,15.2850596 14.5841173,15.2336985 L15.4251142,14.7406321 C15.5163946,14.6993222 15.6210035,14.6993222 15.7122839,14.7406321 L15.7122839,14.7406321 Z" id="Path" fill="#3A2C6D"></path>
                                <path d="M14.4507885,14.0215768 L15.3430658,14.5351877 C15.4148582,14.5351877 15.4046021,14.6481821 15.3430658,14.6995432 L14.4918128,15.1823374 C14.4051375,15.2279991 14.3015744,15.2279991 14.2148992,15.1823374 L13.3226219,14.6687265 C13.2508295,14.6687265 13.2610856,14.5557322 13.3226219,14.5146433 L14.1738749,14.0215768 C14.2605502,13.9759151 14.3641133,13.9759151 14.4507885,14.0215768 L14.4507885,14.0215768 Z" id="Path" fill="#3A2C6D"></path>
                                <path d="M11.6508842,12.3985665 L14.0918264,13.8058603 C14.1636189,13.8058603 14.1533628,13.9188547 14.0918264,13.9702158 L13.2405735,14.4632822 C13.1492931,14.504592 13.0446841,14.504592 12.9534038,14.4632822 L10.5227176,13.0457162 C10.4509251,13.0457162 10.4509251,12.9327218 10.5227176,12.8916329 L11.3637145,12.3985665 C11.453985,12.3528022 11.5606136,12.3528022 11.6508842,12.3985665 L11.6508842,12.3985665 Z" id="Path" fill="#3A2C6D"></path>
                                <path d="M28.2451892,21.9928176 L29.4554043,22.6913284 C29.5271967,22.6913284 29.5169407,22.814595 29.4554043,22.8556839 L28.6144074,23.3487503 C28.5241368,23.3945146 28.4175083,23.3945146 28.3272377,23.3487503 L27.1170226,22.6502395 C27.0452302,22.6502395 27.0554863,22.5372451 27.1170226,22.485884 L27.9682756,21.9928176 C28.0560611,21.9519058 28.1574037,21.9519058 28.2451892,21.9928176 L28.2451892,21.9928176 Z" id="Path" fill="#3A2C6D"></path>
                                <path d="M6.73823142,15.2336985 L24.5427516,25.505916 C24.614544,25.505916 24.614544,25.6189104 24.5427516,25.6702715 L24.1222531,25.9065325 C24.0355779,25.9521942 23.9320147,25.9521942 23.8453395,25.9065325 L6.03056328,15.634315 C5.95877086,15.634315 5.96902692,15.5213206 6.03056328,15.4699595 L6.45106174,15.2234263 C6.54380995,15.1853525 6.64843133,15.1890948 6.73823142,15.2336985 L6.73823142,15.2336985 Z" id="Path" fill="#3A2C6D"></path>
                                <polygon id="_Контур_4" fill="#BFBFBF" points="27.5785453 15.6959483 27.4554726 15.7575816 24.3786546 17.5449474 18.9121746 14.3811045 18.799358 14.3091989 21.9889926 12.470472"></polygon>
                                <polygon id="_Контур_5" fill="#E5E5E5" points="27.4554726 15.7575816 24.3786546 17.5449474 18.9121746 14.3811045 21.9889926 12.6040108"></polygon>
                                <path d="M36.3475142,19.8459241 L36.3475142,20.123274 C36.3507529,20.5244463 36.1394804,20.8967149 35.7936494,21.0991347 L24.9427379,27.3651873 C24.598028,27.5695342 24.1695373,27.5695342 23.8248274,27.3651873 L4.19472854,16.0657481 C3.83018843,15.8554577 3.61274803,15.4594887 3.63064524,15.0385264 L3.63064524,14.7611765 L24.3786546,26.7591265 L36.3475142,19.8459241 Z" id="_Контур_6" fill="#E5E5E5"></path>
                                <path d="M24.0709728,26.9337542 C23.6954013,27.0819324 23.273025,27.0517151 22.9222941,26.8515765 L3.4357801,15.5521372 C3.09110505,15.3536177 2.85384473,15.0103684 2.78964832,14.6173655 L0.64613178,1.83872693 C0.641066286,1.7669109 0.641066286,1.69482639 0.64613178,1.62301036 C0.644927513,1.26648789 0.789458906,0.925004915 1.04611812,0.677966353 L21.3531169,12.4191109 C21.6005592,12.5712903 21.7719998,12.8213905 21.8248957,13.1073495 L24.0709728,26.9337542 Z" id="_Контур_7" fill="#F4F4F4"></path>
                                <path d="M24.3786546,26.7693987 L24.2453258,26.8515765 L24.0709728,26.9337542 L21.7531033,13.1073495 C21.7002074,12.8213905 21.5287668,12.5712903 21.2813245,12.4191109 L1.025606,0.677966353 C1.10050814,0.592983632 1.19104051,0.523233636 1.29226356,0.472522004 L21.6402866,12.234211 C21.8916293,12.3842513 22.0670204,12.6346708 22.1223214,12.9224496 L24.3786546,26.7693987 Z" id="_Контур_8" fill="#E5E5E5"></path>
                            </g>
                        </g>
                        <path d="M40.162731,15.2336985 C40.162731,15.2336985 39.9063295,20.0924574 40.0191461,20.5238905 C40.1319628,20.9553236 42.2447111,22.3831619 42.8600747,22.8967727 C43.4754383,23.4103836 39.5063431,27.3343707 37.5782038,28.2177814 C35.6500646,29.1011921 29.5169407,26.7693987 29.3733558,23.7493668 C29.229771,20.7293348 30.3989618,18.2126416 31.3630315,18.0791027 C32.3271011,17.9455639 40.162731,15.2336985 40.162731,15.2336985 Z" id="_Контур_9" fill="#FFCEA9"></path>
                        <path d="M40.6960461,21.3662123 C40.6960461,21.3662123 37.1782175,26.6255877 32.2655648,27.1186541 C30.7168997,25.5880937 30.5733149,20.1438185 32.7168314,18.4078137 C32.7168314,18.4078137 30.7476679,16.8053478 29.393868,17.1237865 C27.9275481,17.991627 26.8321038,19.3704039 26.31705,20.9964125 C25.0590417,24.6262319 24.4716974,28.4552056 24.5837758,32.2958517 C24.6658243,37.4319605 24.5837758,50.4879489 24.5837758,50.4879489 C25.1668425,53.6035638 27.0515524,56.321074 29.7630861,57.955851 C33.3139094,59.9732604 37.5006943,60.5539389 41.4652506,59.5788613 C43.9574732,58.9933449 44.8805186,57.6065956 45.7420276,55.7884131 C45.5163943,52.1828647 44.0908019,44.7355071 44.7164216,40.1849147 C45.3420413,35.6343224 46.2753427,32.2444906 46.5214882,28.577309 C46.7676336,24.9101274 46.0394533,24.9717607 44.1933625,23.6569168 C43.084449,22.8096224 41.9156072,22.0440437 40.6960461,21.3662123 Z" id="_Контур_10" fill="#F4F4F4"></path>
                        <path d="M35.0552131,63.2665874 C35.9382774,62.6777445 36.8599966,62.1492375 37.8140932,61.6846659 C38.7036092,61.4004884 39.5123922,60.9074101 40.172987,60.2465554 C41.0344961,59.4042336 42.4498323,56.1993018 43.4651823,53.0560032 C44.4756859,49.531005 44.8746264,45.8584448 44.6446292,42.1982694 C44.2241307,37.8120325 42.6446975,31.6795187 42.2447111,29.1628254 C41.8447248,26.6461321 42.6549535,25.6291826 43.8344004,24.704683 C45.2087125,23.615828 47.1060836,24.0986222 48.1214335,27.632265 C49.4289618,32.5211451 50.1857884,37.5412977 50.3777667,42.5988858 C50.4195875,46.3559585 49.8408613,50.0941023 48.6650047,53.6620641 C47.6194568,56.718518 46.2074759,59.6366101 44.4600201,62.35236 C43.9779853,63.1638652 43.8138883,63.8931926 43.075452,65.5572919 C42.3663729,67.2294355 41.2609952,68.7032437 39.8550492,69.8510788 C38.624322,70.7344895 38.0397265,70.8783005 37.7423008,70.6934006 C37.4448751,70.5085007 37.4551311,70.0873398 37.9781902,69.6661789 C38.85133,68.9786675 39.5946361,68.140261 40.172987,67.1905745 C40.172987,67.1905745 39.0961007,68.2794295 38.3884326,68.8752181 C37.7656759,69.402312 37.0759368,69.8444404 36.3372206,70.190062 C35.6192964,70.5085007 34.6142025,69.8921676 35.1270055,69.4093734 C35.6398085,68.9265792 36.1526115,68.680046 37.1782175,67.7863631 C37.7300966,67.3175295 38.2226283,66.7828254 38.6448341,66.1941694 C37.9231953,66.7507415 37.1584058,67.2488096 36.3577327,67.6836409 C35.7393218,68.0583421 35.029268,68.2539145 34.3065207,68.2486129 C33.9270465,68.2486129 33.4655238,67.6939131 34.183448,67.2213911 C35.1703266,66.6860199 36.0896584,66.0342318 36.921816,65.279942 C37.7115326,64.4992535 38.1525432,63.8315593 37.947422,63.8212871 C37.7423008,63.8110149 37.2910342,64.2938091 36.3679888,64.5917034 C35.4449434,64.8895977 34.4501055,64.5917034 34.3167768,64.1089092 C34.183448,63.626115 34.193704,63.6877483 35.0552131,63.2665874 Z" id="_Контур_11" fill="#FFCEA9"></path>
                        <path d="M29.1682346,7.98151297 L29.1682346,7.98151297 C29.7528301,4.21160916 32.470686,1.35593271 36.3474766,1.57164927 C39.5540791,1.73500096 42.2973626,3.93331156 43.160057,7.03086188 C44.0227514,10.1284122 42.8116611,13.4315227 40.1524749,15.2336985 C40.0149971,15.8064629 39.8119501,16.3614133 39.5473674,16.8875255 C38.1833114,18.4899914 34.0296071,19.5172132 32.819392,19.3117688 C31.3705273,19.1799772 30.1498665,18.1733832 29.742574,16.7745311 C28.4503104,13.8161325 28.8502968,9.85105655 29.1682346,7.98151297 Z" id="_Контур_12" fill="#FFCEA9"></path>
                        <path d="M40.162731,15.2336985 L40.162731,15.2336985 L39.8037689,11.9363167 C39.8037689,11.9363167 42.4908566,4.97175325 36.1423554,6.30714153 C31.957883,7.19055223 30.9015088,7.58089649 29.6297573,4.7663089 C28.3580059,1.95172132 32.819392,-0.585516396 38.1833114,0.12326661 C41.9949172,0.51800654 44.8672422,3.77456499 44.788214,7.61171314 C44.6548852,9.68670107 44.101058,13.8777658 40.162731,15.2336985 Z" id="Path" fill="#3A2C6D"></path>
                        <path d="M51.0238985,34.1345786 C51.0238985,34.1345786 47.5573502,37.5860437 43.4651823,36.5896386 C42.8805869,36.1890221 41.4652506,28.1253314 41.4652506,28.1253314 C41.4652506,28.1253314 41.4652506,23.6569168 44.8907746,23.7699112 C48.3162987,23.8829056 51.0238985,34.1345786 51.0238985,34.1345786 Z" id="Path" fill="#EDEDED"></path>
                        <path d="M24.8709455,27.4370929 C23.9015068,27.4021457 22.9829704,26.9936731 22.3069305,26.2968767 C22.4505153,24.4889664 24.7581288,17.6271252 29.393868,17.1237865 C28.1328267,18.0096417 27.1336711,19.2197438 26.501659,20.6266127 C25.7802486,22.8503263 25.2349883,25.1275406 24.8709455,27.4370929 L24.8709455,27.4370929 Z" id="Path" fill="#EDEDED"></path>
                    </g>
                    <path d="M471.706613,320.261371 L385.824242,270.619021 C380.425745,267.530529 376.055533,259.140128 376.055533,251.943943 L376.055533,116.657728 C376.055533,109.451248 380.425745,106.156857 385.824242,109.265939 L471.706613,158.918584 C477.094827,162.007076 481.465039,170.397477 481.465039,177.593662 L481.465039,312.900467 C481.465039,320.106947 477.094827,323.380747 471.706613,320.261371 Z" id="Path" fill="#211B49" fill-rule="nonzero"></path>
                    <polygon id="Path" fill="#211B49" fill-rule="nonzero" points="475.767228 321.44139 478.616133 319.898734 476.69362 315.752162"></polygon>
                    <path d="M376.055533,109.819755 C377.062373,109.141112 378.119812,108.564088 379.215664,108.095335 L381.753344,113.784563 L376.055533,109.819755 Z" id="Path" fill="#211B49" fill-rule="nonzero"></path>
                    <path d="M468.857708,320.2679 L382.965053,270.59416 C377.576839,267.505638 373.206628,259.115151 373.206628,251.918893 L373.206628,116.662189 C373.206628,109.455636 377.576839,106.150917 382.965053,109.270325 L468.857708,158.923475 C474.245922,162.011997 478.616133,170.392189 478.616133,177.588447 L478.616133,312.876036 C478.616133,320.072294 474.245922,323.387308 468.857708,320.2679 Z" id="Path" fill="#2E245B" fill-rule="nonzero"></path>
                    <polygon id="Path" fill="#A298E2" fill-rule="nonzero" points="398.846778 136.541475 384.60225 127.788049 384.60225 122.318405 398.846778 131.071831"></polygon>
                    <polygon id="Path" fill="#C33AFC" fill-rule="nonzero" points="467.220511 176.366072 401.695683 139.157801 401.695683 133.696861 467.220511 170.895149"></polygon>
                    <polygon id="Path" fill="#A298E2" fill-rule="nonzero" points="398.846778 156.453774 384.60225 147.700347 384.60225 142.230703 398.846778 150.98413"></polygon>
                    <polygon id="Path" fill="#F4CE2C" fill-rule="nonzero" points="444.429267 182.0553 401.695683 156.453774 401.695683 150.764546 444.429267 176.366072"></polygon>
                    <polygon id="Path" fill="#A298E2" fill-rule="nonzero" points="398.846778 164.987616 384.60225 156.238031 384.60225 150.764546 398.846778 159.514131"></polygon>
                    <polygon id="Path" fill="#FF8657" fill-rule="nonzero" points="455.824889 199.122985 401.695683 167.74572 401.695683 162.143002 455.824889 193.520267"></polygon>
                    <polygon id="Path" fill="#A298E2" fill-rule="nonzero" points="398.846778 173.521458 384.60225 164.768032 384.60225 159.298388 398.846778 168.051814"></polygon>
                    <polygon id="Path" fill="#A298E2" fill-rule="nonzero" points="438.731456 199.122985 401.695683 176.482611 401.695683 170.676844 438.731456 193.317217"></polygon>
                    <polygon id="Path" fill="#A298E2" fill-rule="nonzero" points="398.846778 147.919932 384.60225 139.166505 384.60225 133.696861 398.846778 142.450288"></polygon>
                    <polygon id="Path" fill="#4D3BFF" fill-rule="nonzero" points="435.88255 167.83223 401.695683 148.047302 401.695683 142.230703 435.88255 162.005017"></polygon>
                    <polygon id="Path" fill="#A298E2" fill-rule="nonzero" points="398.846778 182.0553 384.60225 173.301874 384.60225 167.83223 398.846778 176.585656"></polygon>
                    <polygon id="Path" fill="#C33AFC" fill-rule="nonzero" points="421.638022 196.278371 401.695683 184.899914 401.695683 179.210686 421.638022 190.589143"></polygon>
                    <polygon id="Path" fill="#A298E2" fill-rule="nonzero" points="398.846778 201.967599 384.60225 193.218013 384.60225 187.744528 398.846778 196.504102"></polygon>
                    <polygon id="Path" fill="#F4CE2C" fill-rule="nonzero" points="464.371606 236.102968 401.695683 201.73434 401.695683 196.278371 464.371606 230.646998"></polygon>
                    <polygon id="Path" fill="#A298E2" fill-rule="nonzero" points="398.846778 210.501441 384.60225 201.748015 384.60225 196.278371 398.846778 205.031797"></polygon>
                    <polygon id="Path" fill="#FF8657" fill-rule="nonzero" points="418.789117 221.879897 401.695683 210.698362 401.695683 204.812213 418.789117 215.993748"></polygon>
                    <polygon id="Path" fill="#A298E2" fill-rule="nonzero" points="398.846778 219.035283 384.60225 210.281857 384.60225 204.812213 398.846778 213.565639"></polygon>
                    <polygon id="Path" fill="#A298E2" fill-rule="nonzero" points="455.824889 253.170652 401.695683 221.78471 401.695683 216.190669 455.824889 247.566385"></polygon>
                    <polygon id="Path" fill="#A298E2" fill-rule="nonzero" points="398.846778 190.589143 384.60225 181.835716 384.60225 176.366072 398.846778 185.119499"></polygon>
                    <polygon id="Path" fill="#4D3BFF" fill-rule="nonzero" points="452.975983 221.879897 401.695683 193.161899 401.695683 187.744528 452.975983 216.462526"></polygon>
                    <polygon id="Path" fill="#A298E2" fill-rule="nonzero" points="398.846778 227.569125 384.60225 218.815699 384.60225 213.346055 398.846778 222.099482"></polygon>
                    <polygon id="Path" fill="#C33AFC" fill-rule="nonzero" points="407.393494 233.258354 401.695683 229.742264 401.695683 224.724511 407.393494 228.240601"></polygon>
                    <polygon id="Path" fill="#A298E2" fill-rule="nonzero" points="398.846778 244.63681 384.60225 235.887224 384.60225 230.41374 398.846778 239.173313"></polygon>
                    <polygon id="Path" fill="#F4CE2C" fill-rule="nonzero" points="413.091306 256.015266 401.695683 247.978103 401.695683 241.792196 413.091306 249.829359"></polygon>
                    <polygon id="Path" fill="#A298E2" fill-rule="nonzero" points="398.846778 253.170652 384.60225 244.417226 384.60225 238.947582 398.846778 247.701008"></polygon>
                    <polygon id="Path" fill="#FF8657" fill-rule="nonzero" points="435.88255 275.927565 401.695683 256.145049 401.695683 250.326038 435.88255 270.108553"></polygon>
                    <polygon id="Path" fill="#A298E2" fill-rule="nonzero" points="398.846778 264.549108 384.60225 255.795682 384.60225 250.326038 398.846778 259.079464"></polygon>
                    <polygon id="Path" fill="#A298E2" fill-rule="nonzero" points="452.975983 295.839863 401.695683 264.636685 401.695683 258.85988 452.975983 290.063058"></polygon>
                    <polygon id="Path" fill="#A298E2" fill-rule="nonzero" points="398.846778 236.102968 384.60225 227.349541 384.60225 221.879897 398.846778 230.633324"></polygon>
                    <polygon id="Path" fill="#4D3BFF" fill-rule="nonzero" points="467.220511 275.927565 401.695683 238.727997 401.695683 233.258354 467.220511 270.44794"></polygon>
                    <path d="M37.3026028,217.244474 L27.8735635,212.50869 L8.11600421,223.639806 C3.63927832,226.169605 0,224.125527 0,219.05581 L0,197.987644 C0.309795019,192.396447 3.32434937,187.284742 8.11600421,184.225538 L125.782557,117.712063 C130.259283,115.182264 133.898561,117.236461 133.898561,122.296059 L133.898561,143.435059 C133.588766,149.026256 130.574212,154.137961 125.782557,157.197165 L46.6696089,201.863296" id="Path" fill="#B1B4C4" fill-rule="nonzero"></path>
                    <polygon id="Path" fill="#B1B4C4" fill-rule="nonzero" points="129.95956 116.629177 133.898561 118.435611 130.564151 122.318405 128.20075 118.03072"></polygon>
                    <polygon id="Path" fill="#B1B4C4" fill-rule="nonzero" points="37.0357722 216.83222 42.7210331 219.035283 42.7335833 214.314434 37.7009352 213.346055"></polygon>
                    <path d="M7.55760347,224.685219 C7.71475229,225.024215 3.0187756,223.065571 2.85238273,222.801907 C2.68598986,222.538244 8.54671667,219.035283 8.54671667,219.035283 L7.55760347,224.685219 Z" id="Path" fill="#B1B4C4" fill-rule="nonzero"></path>
                    <path d="M49.5454474,201.847103 L128.633968,157.148717 C133.420409,154.085922 136.432838,148.976026 136.747467,143.386026 L136.747467,122.286607 C136.747467,117.226794 133.109312,115.202869 128.633968,117.692297 L10.9624039,184.208596 C6.17471983,187.270239 3.16189327,192.380809 2.84890556,197.971287 L2.84890556,219.070706 C2.84890556,224.130519 6.48706021,226.154444 10.9624039,223.654896 L30.7138628,212.523308 L40.1813334,217.269413 L49.5454474,201.847103 Z" id="Path" fill="#E9EAF2" fill-rule="nonzero"></path>
                    <polygon id="Path" fill="#8C50FF" fill-rule="nonzero" points="125.351844 138.200631 14.2445278 201.967599 14.2445278 194.629337 125.351844 130.852247"></polygon>
                    <polygon id="Path" fill="#8C50FF" fill-rule="nonzero" points="88.3160722 172.224933 14.2445278 213.346055 14.2445278 206.108738 88.3160722 164.987616"></polygon>
                </g>
            </g>
        </g>
    </g>
</svg>