<?xml version="1.0" encoding="UTF-8"?>
<svg width="900px" height="587px" viewBox="0 0 900 587" version="1.1" xmlns="http://www.w3.org/2000/svg" xmlns:xlink="http://www.w3.org/1999/xlink">
    <!-- Generator: Sketch 61.2 (89653) - https://sketch.com -->
    <title>3</title>
    <desc>Created with Sketch.</desc>
    <g id="Images" stroke="none" stroke-width="1" fill="none" fill-rule="evenodd">
        <g id="Artboard" transform="translate(-42.000000, -60.000000)">
            <g id="3" transform="translate(42.000000, 60.000000)">
                <rect id="Rectangle-Copy-22" fill="#F9F9F9" x="0" y="0" width="900" height="586.708861"></rect>
                <g id="Startup_SVG" transform="translate(225.000000, 65.506329)">
                    <ellipse id="Oval" fill="#D6D8E5" fill-rule="nonzero" opacity="0.15" cx="65.5063291" cy="294.778481" rx="65.5063291" ry="38.4493671"></ellipse>
                    <ellipse id="Oval" fill="#EDEFF9" fill-rule="nonzero" opacity="0.5" cx="65.5063291" cy="291.93038" rx="37.0253165" ry="21.3607595"></ellipse>
                    <ellipse id="Oval" fill="#EDEFF9" fill-rule="nonzero" cx="65.5063291" cy="281.962025" rx="11.3924051" ry="5.69620253"></ellipse>
                    <rect id="Rectangle" fill="#EDEFF9" fill-rule="nonzero" x="54.1139241" y="205.063291" width="19.9367089" height="79.7468354"></rect>
                    <path d="M54.1139241,201.382974 C54.1139241,201.382974 54.6989396,217.993094 67.0330176,247.78481 C67.0330176,247.78481 78.518823,223.794491 79.7083547,200.878505 C80.8978863,177.962518 54.1139241,201.382974 54.1139241,201.382974 Z" id="Path" fill="#FFBC00" fill-rule="nonzero"></path>
                    <polygon id="Path" fill="#8C50FF" fill-rule="nonzero" points="37.5256402 142.405063 11.6238473 169.578907 8.5443038 205.063291 39.8706949 188.127346 45.5696203 144.847656"></polygon>
                    <polygon id="Path" fill="#8C50FF" fill-rule="nonzero" points="93.4870181 142.405063 119.379962 169.578907 122.468354 205.063291 91.0269229 186.953756 85.443038 144.847656"></polygon>
                    <ellipse id="Oval" fill="#424956" fill-rule="nonzero" cx="65.5063291" cy="197.943038" rx="14.2405063" ry="7.12025316"></ellipse>
                    <polygon id="Path" fill="#494949" fill-rule="nonzero" points="45.5696203 190.517631 45.5696203 182.278481 85.443038 182.278481 85.443038 190.822785"></polygon>
                    <ellipse id="Oval" fill="#2B303F" fill-rule="nonzero" cx="65.5063291" cy="192.246835" rx="19.9367089" ry="12.8164557"></ellipse>
                    <ellipse id="Oval" fill="#EDEFF9" fill-rule="nonzero" cx="64.0822785" cy="180.85443" rx="24.2088608" ry="12.8164557"></ellipse>
                    <path d="M93.9790919,157.483333 L93.9790919,157.483333 C93.9790919,158.65121 93.9790919,159.800401 93.9790919,160.91222 C93.9790919,161.846522 93.9790919,162.780824 93.9790919,163.715126 C93.9790919,164.976433 93.9134482,166.181683 93.8665597,167.358903 C93.8665597,168.825757 93.7634052,170.217867 93.6883838,171.553918 C93.6133623,172.88997 93.5477185,174.197993 93.4539417,175.403242 C93.0694567,180.682047 93.0788344,184.568743 92.4223965,186.091655 C88.8494992,194.416284 76.7616656,189.828862 70.7974591,186.839096 C68.5937036,185.73662 67.1401627,184.830347 67.1401627,184.830347 L66.596257,184.830347 C66.596257,184.830347 64.8707633,185.764649 62.3200335,186.773695 C56.0651188,189.29631 44.9150535,193.771616 41.8204181,186.063626 C41.2671348,184.680859 40.7138515,180.112123 40.3762549,175.328498 C40.2918557,174.132591 40.2168342,172.852598 40.1418128,171.488517 C40.0667913,170.124437 40.0292806,168.769699 39.9730145,167.302845 C39.9730145,166.134968 39.9073707,164.929718 39.8792377,163.677754 C39.8792377,162.743452 39.8792377,161.80915 39.8792377,160.874848 L39.8792377,160.874848 L39.8792377,157.445961 L39.8792377,157.445961 C39.7104394,124.84817 43.1801821,72.7234702 54.639711,50.4777435 C57.9500331,44.0404039 61.9261708,40.1069932 66.6806562,39.8734177 L66.6806562,39.8734177 L67.2245618,39.8734177 L67.2245618,39.8734177 C71.9134034,40.1163362 75.9364295,44.0310609 79.2561293,50.4403715 C90.5562376,72.602011 94.185401,124.521164 93.9790919,157.483333 Z" id="Path" fill="#EDEFF9" fill-rule="nonzero"></path>
                    <circle id="Oval" fill="#2B303F" fill-rule="nonzero" cx="68.3544304" cy="116.772152" r="8.5443038"></circle>
                    <path d="M68.3544304,128.164557 C62.0625788,128.164557 56.9620253,123.064003 56.9620253,116.772152 C56.9620253,110.4803 62.0625788,105.379747 68.3544304,105.379747 C74.646282,105.379747 79.7468354,110.4803 79.7468354,116.772152 C79.7414482,123.061771 74.6440491,128.15917 68.3544304,128.164557 L68.3544304,128.164557 Z M68.3544304,108.291351 C64.9233824,108.287404 61.8279793,110.351175 60.5122342,113.519916 C59.1964891,116.688657 59.9196563,120.338 62.3443765,122.765517 C64.7690966,125.193034 68.4176033,125.920407 71.5878591,124.608316 C74.7581149,123.296224 76.8254554,120.203202 76.8254554,116.772152 C76.8200849,112.094377 73.0321963,108.302119 68.3544304,108.291351 L68.3544304,108.291351 Z" id="Shape" fill="#424956" fill-rule="nonzero"></path>
                    <circle id="Oval" fill="#2B303F" fill-rule="nonzero" cx="68.3544304" cy="88.2911392" r="8.5443038"></circle>
                    <path d="M68.3641719,99.683524 C62.0736025,99.6889009 56.9692223,94.5947065 56.9620329,88.3041415 C56.9548587,82.0135764 62.0475938,76.9077403 68.3381591,76.898746 C74.6287244,76.8897755 79.7360202,81.9810468 79.7468075,88.2716067 C79.7522007,94.5650346 74.6575955,99.6727456 68.3641719,99.683524 Z M68.3641719,79.8273768 C64.9351796,79.8234286 61.8418151,81.8864861 60.5277721,85.0537067 C59.213729,88.2209274 59.9380668,91.8679039 62.3627321,94.2925682 C64.7873975,96.7172326 68.4343754,97.44157 71.6015974,96.1275275 C74.7688193,94.813485 76.8318777,91.7201218 76.8279352,88.2911309 C76.8305201,86.0438142 75.9402603,83.8875128 74.3529975,82.2965892 C72.7657348,80.7056656 70.6114895,79.8104401 68.3641719,79.8078525 L68.3641719,79.8273768 Z" id="Shape" fill="#424956" fill-rule="nonzero"></path>
                    <path d="M93.9873418,173.734177 C93.9873418,174.945276 93.9873418,176.136998 93.9873418,177.299653 C93.0509527,180.496954 90.5039745,183.558613 86.3651348,186.019566 C75.6341161,192.423858 58.2734628,192.423858 47.4956247,186.019566 C43.356785,183.539235 40.8191707,180.467888 39.8734177,177.299653 L39.8734177,177.299653 L39.8734177,173.743866 C40.8098068,176.9993 43.3380573,180.099714 47.5330803,182.609111 C58.2734628,189.013403 75.6715717,189.013403 86.4025903,182.609111 C90.5133383,180.070647 93.1164999,176.979923 93.9873418,173.734177 Z" id="Path" fill="#8C50FF" fill-rule="nonzero"></path>
                    <path d="M93.9873418,179.463107 C93.9873418,180.559475 93.9217264,181.623115 93.8748583,182.645846 C92.8250126,185.198583 90.3316289,187.628591 86.3759601,189.608599 C75.6337885,195.024982 58.2550919,195.024982 47.4660521,189.608599 C43.519757,187.612228 41.0263733,185.165855 39.9671539,182.596755 C39.9671539,181.574024 39.9015386,180.518566 39.8734177,179.43038 C40.81078,182.097662 43.369779,184.634035 47.4566785,186.695861 C58.2082238,192.112244 75.6244148,192.112244 86.3665865,186.695861 C90.4722332,184.642217 93.0031114,182.114026 93.9873418,179.463107 Z" id="Path" fill="#8C50FF" fill-rule="nonzero"></path>
                    <path d="M93.9873418,168.106615 C92.9009732,170.620564 90.5666275,173.014392 87.0022612,174.970638 C76.7131836,180.642038 60.0675032,180.642038 49.7335343,174.970638 C46.1422333,172.980072 43.8078876,170.577663 42.721519,168.037975 C42.793345,169.290659 42.865171,170.466123 42.9459753,171.564367 C44.1041699,173.932455 46.3666896,176.163263 49.7335343,178.025129 C54.1249717,180.311925 58.9701084,181.691641 63.9550866,182.074903 C66.6413334,182.324532 69.3455291,182.344631 72.035514,182.134963 C77.2659579,181.818813 82.3613126,180.416275 86.9663482,178.025129 C90.3062582,176.180423 92.5597996,173.975355 93.7269724,171.633007 L93.9873418,168.106615 Z" id="Path" fill="#8C50FF" fill-rule="nonzero"></path>
                    <path d="M76.8987342,52.4297755 C68.5467166,54.6753069 59.6178404,54.6753069 51.2658228,52.4297755 C54.7128391,46.5363934 58.8531646,42.9353572 63.8039783,42.721519 L63.8039783,42.721519 L64.3703436,42.721519 L64.3703436,42.721519 C69.3016275,42.9781249 73.441953,46.562054 76.8987342,52.4297755 Z" id="Path" fill="#8C50FF" fill-rule="nonzero"></path>
                    <rect id="Rectangle" fill="#8C50FF" fill-rule="nonzero" x="62.6582278" y="142.405063" width="5.69620253" height="62.6582278"></rect>
                    <g id="monitor" transform="translate(170.886076, 0.000000)">
                        <path d="M115.672131,353.157211 L62.5947292,322.291209 C58.7603445,320.06082 59.2453621,316.171464 63.6654285,313.600065 L98.0559245,293.609512 L164.99751,332.530722 L130.607014,352.530491 C126.177796,355.101889 119.497365,355.378384 115.672131,353.157211 Z" id="Path" fill="#D6D8E5" fill-rule="nonzero" opacity="0.4"></path>
                        <path d="M119.543121,350.862307 L66.465719,319.987088 C62.6404856,317.765915 63.1163519,313.876559 67.5364183,311.30516 L101.936066,291.314608 L168.877651,330.235817 L134.52376,350.22637 C130.057937,352.806985 123.368354,353.08348 119.543121,350.862307 Z" id="Path" fill="#B1B4C4" fill-rule="nonzero"></path>
                        <polygon id="Path" fill="#B1B4C4" fill-rule="nonzero" points="168.8685 330.235817 168.8685 328.198974 165.775368 329.996189"></polygon>
                        <polygon id="Path" fill="#B1B4C4" fill-rule="nonzero" points="63.8759079 316.309711 63.8759079 314.236002 67.0514007 315.563176"></polygon>
                        <path d="M119.543121,348.816248 L66.465719,317.950245 C62.6404856,315.719856 63.1163519,311.839716 67.5364183,309.268317 L101.936066,289.268548 L168.877651,328.198974 L134.52376,348.189527 C130.057937,350.760926 123.368354,351.046637 119.543121,348.816248 Z" id="Path" fill="#D6D8E5" fill-rule="nonzero"></path>
                        <polygon id="Path" fill="#9EA1AF" fill-rule="nonzero" points="102.100789 289.360713 93.8188836 261.674397 161.492571 300.77072 168.8685 328.198974"></polygon>
                        <polygon id="Path" fill="#9EA1AF" fill-rule="nonzero" points="166.910127 329.332602 168.8685 328.198974 165.949243 325.848771"></polygon>
                        <polygon id="Path" fill="#B1B4C4" fill-rule="nonzero" points="99.9685412 290.402176 91.6866362 262.71586 159.360324 301.812182 166.900975 329.332602"></polygon>
                        <path d="M271.792903,376.032523 L9.80101681,223.674836 C6.14050633,221.536612 3.14803901,215.803959 3.14803901,210.873141 L3.14803901,6.79254828 C3.14803901,1.85251317 6.13135505,-0.414741754 9.80101681,1.7234824 L271.792903,154.044304 C275.453414,156.182528 278.445881,161.915181 278.445881,166.845999 L278.445881,370.926592 C278.418427,375.85741 275.453414,378.124665 271.792903,376.032523 Z" id="Path" fill="#C4C7D6" fill-rule="nonzero"></path>
                        <polygon id="Path" fill="#C4C7D6" fill-rule="nonzero" points="273.110687 378.097016 276.011641 376.410399 274.757917 367.746905"></polygon>
                        <path d="M2.68132393,2.98614063 L5.5365221,1.31795713 L9.64544511,3.68659337 C9.64544511,3.68659337 5.27113509,4.35939666 5.16131978,4.33174721 C5.05150446,4.30409775 2.68132393,2.98614063 2.68132393,2.98614063 Z" id="Path" fill="#B1B4C4" fill-rule="nonzero"></path>
                        <path d="M269.358664,377.387346 L7.40338244,225.066525 C3.74287197,222.928301 0.750404648,217.204865 0.750404648,212.26483 L0.750404648,8.18423727 C0.750404648,3.25341865 3.72456941,0.986163725 7.40338244,3.12438788 L269.358664,155.445209 C273.019174,157.583433 276.011641,163.316086 276.011641,168.246905 L276.011641,372.34593 C276.011641,377.258316 273.037477,379.525571 269.358664,377.387346 Z" id="Path" fill="#E4E7F2" fill-rule="nonzero"></path>
                        <path d="M268.9011,377.654624 L6.93666736,225.333803 C3.27615688,223.195579 0.283689562,217.462926 0.283689562,212.532108 L0.283689562,8.45151529 C0.283689562,3.52069666 3.2670056,1.25344174 6.93666736,3.3916659 L268.9011,155.75857 C272.56161,157.887577 275.554078,163.62023 275.554078,168.560265 L275.554078,372.585559 C275.554078,377.525594 272.570762,379.792849 268.9011,377.654624 Z" id="Path" fill="#D6D8E5" fill-rule="nonzero"></path>
                        <path d="M271.948475,365.240021 L3.66051048,209.214174 L3.75202324,9.27178232 C3.75202324,7.225723 5.17962233,6.39623949 6.93666736,7.42848563 L268.9011,159.740091 C270.773565,160.970225 271.955324,163.02226 272.085744,165.269981 L271.948475,365.240021 Z" id="Path" fill="#FFFFFF" fill-rule="nonzero"></path>
                        <path d="M109.559079,95.003511 L23.6102926,45.031738 C22.8057865,44.4477501 22.3236996,43.5143171 22.3108114,42.515638 L22.3108114,36.4788414 C22.3108114,35.557193 22.8873418,35.0687194 23.6102926,35.4834611 L109.559079,85.4552342 C110.36021,86.0421541 110.841351,86.9737543 110.85856,87.9713342 L110.85856,94.0081308 C110.85856,94.9758616 110.272878,95.4274693 109.559079,95.003511 Z" id="Path" fill="#E9EAF2" fill-rule="nonzero"></path>
                        <path d="M87.4862005,96.4504989 L24.0037975,59.5384829 C23.1961232,58.9603842 22.7101431,58.0294158 22.695165,57.0315994 L22.695165,54.0270258 C22.695165,53.1053774 23.2808466,52.6076873 24.0037975,53.0316456 L87.4862005,89.9436616 C88.2823545,90.5286597 88.7573326,91.4580498 88.7673791,92.4505451 L88.7673791,95.4551187 C88.7673791,96.4228495 88.2,96.8744572 87.4862005,96.4504989 Z" id="Path" fill="#E9EAF2" fill-rule="nonzero"></path>
                        <path d="M87.4862005,107.832856 L24.0037975,70.9669223 C23.1961232,70.3888237 22.7101431,69.4578553 22.695165,68.4600388 L22.695165,65.4370322 C22.695165,64.5153839 23.2808466,64.0176938 24.0037975,64.441652 L87.4862005,101.381318 C88.289273,101.962392 88.7713645,102.892415 88.7856817,103.888201 L88.7856817,106.892775 C88.7673791,107.832856 88.2,108.266031 87.4862005,107.832856 Z" id="Path" fill="#E9EAF2" fill-rule="nonzero"></path>
                        <path d="M75.5071799,112.275201 L24.0037975,82.3216299 C23.1961232,81.7435312 22.7101431,80.8125628 22.695165,79.8147464 L22.695165,76.8101728 C22.695165,75.8885244 23.2808466,75.3908343 24.0037975,75.8147926 L75.5071799,105.759147 C76.3140148,106.342156 76.7993405,107.275289 76.8158124,108.275247 L76.8158124,111.279821 C76.8158124,112.247552 76.2301307,112.689943 75.5071799,112.275201 Z" id="Path" fill="#8C50FF" fill-rule="nonzero"></path>
                        <path d="M109.559079,214.5966 L23.6102926,164.624827 C22.8057865,164.040839 22.3236996,163.107406 22.3108114,162.108727 L22.3108114,156.07193 C22.3108114,155.104199 22.8873418,154.661808 23.6102926,155.07655 L109.559079,205.048323 C110.36021,205.635243 110.841351,206.566843 110.85856,207.564423 L110.85856,213.60122 C110.85856,214.56895 110.272878,215.011342 109.559079,214.5966 Z" id="Path" fill="#E9EAF2" fill-rule="nonzero"></path>
                        <path d="M87.4862005,216.043588 L24.0037975,179.177654 C23.1969626,178.594645 22.7116368,177.661512 22.695165,176.661554 L22.695165,173.656981 C22.695165,172.68925 23.2808466,172.246859 24.0037975,172.670817 L87.4862005,209.53675 C88.2873322,210.12367 88.7684725,211.055271 88.7856817,212.05285 L88.7856817,215.057424 C88.7673791,216.015938 88.2,216.458329 87.4862005,216.043588 Z" id="Path" fill="#E9EAF2" fill-rule="nonzero"></path>
                        <path d="M87.4862005,227.435161 L24.0037975,190.523145 C23.1983938,189.94305 22.7130634,189.013326 22.695165,188.016262 L22.695165,185.011688 C22.695165,184.09004 23.2808466,183.601566 24.0037975,184.025524 L87.4862005,220.891458 C88.2873322,221.478378 88.7684725,222.409978 88.7856817,223.407558 L88.7856817,226.412132 C88.7673791,227.407512 88.2,227.849903 87.4862005,227.435161 Z" id="Path" fill="#E9EAF2" fill-rule="nonzero"></path>
                        <path d="M75.5071799,231.859073 L24.0037975,201.914719 C23.1958296,201.332702 22.7101817,200.39895 22.695165,199.398619 L22.695165,196.394045 C22.695165,195.426314 23.2808466,194.983923 24.0037975,195.407881 L75.5071799,225.352236 C76.3140148,225.935245 76.7993405,226.868378 76.8158124,227.868336 L76.8158124,230.87291 C76.8158124,231.84064 76.2301307,232.255382 75.5071799,231.859073 Z" id="Path" fill="#8C50FF" fill-rule="nonzero"></path>
                        <path d="M132.556236,229.435138 C132.556236,229.435138 142.036958,237.453479 155.727267,226.504296 C165.50083,218.430657 174.240299,223.038899 179.108778,225.803844 C183.977257,228.568789 191.005437,230.264622 204.393754,254.614571 C204.393754,254.614571 208.749761,262.245819 215.942664,266.430103 C223.135568,270.614386 226.59475,268.568327 232.250239,259.978564 C237.905727,251.388802 241.611994,241.877391 252.007844,248.089301 L252.007844,334.438534 L131.622806,264.513074 L131.622806,228.872933 L132.556236,229.435138 Z" id="Path" fill="#F5F6FF" fill-rule="nonzero"></path>
                        <path d="M106.392737,192.827266 L24.0312513,144.901552 C23.2244164,144.318544 22.7390907,143.385411 22.7226188,142.385452 L22.7226188,94.5242539 C22.7226188,93.6026056 23.3083005,93.1141319 24.0312513,93.5288737 L106.392737,141.454587 C107.199572,142.037596 107.684898,142.970729 107.70137,143.970687 L107.70137,191.850319 C107.70137,192.799617 107.115688,193.242008 106.392737,192.827266 Z" id="Path" fill="#E9EAF2" fill-rule="nonzero"></path>
                        <polyline id="Path" stroke="#E9EAF2" stroke-width="0.31" points="131.622806 227.425945 131.622806 264.494641 252.007844 334.484616 252.007844 248.135383"></polyline>
                        <line x1="178.934904" y1="226.237018" x2="178.934904" y2="291.913679" id="Path" stroke="#E9EAF2" stroke-width="0.31"></line>
                        <line x1="215.76879" y1="267.775709" x2="215.76879" y2="313.32357" id="Path" stroke="#E9EAF2" stroke-width="0.31"></line>
                        <path d="M131.622806,228.872933 C152.981884,242.209184 156.001805,212.062067 179.273501,225.591865 C202.545196,239.121662 199.333098,256.752795 216.510044,266.743463 C233.686989,276.734131 234.089645,237.71154 252.007844,248.135383" id="Path" stroke="#E9EAF2" stroke-width="1.53"></path>
                        <ellipse id="Oval" fill="#8C50FF" fill-rule="nonzero" transform="translate(178.929090, 226.248291) rotate(-30.000000) translate(-178.929090, -226.248291) " cx="178.92909" cy="226.248291" rx="2.31943107" ry="4.03888618"></ellipse>
                        <ellipse id="Oval" fill="#8C50FF" fill-rule="nonzero" transform="translate(253.687652, 249.130855) rotate(-29.886527) translate(-253.687652, -249.130855) " cx="253.687652" cy="249.130855" rx="2.32739083" ry="4.05284557"></ellipse>
                        <ellipse id="Oval" fill="#8C50FF" fill-rule="nonzero" transform="translate(217.295772, 268.037642) rotate(-29.886527) translate(-217.295772, -268.037642) " cx="217.295772" cy="268.037642" rx="2.32739083" ry="4.05284557"></ellipse>
                        <ellipse id="Oval" fill="#8C50FF" fill-rule="nonzero" transform="translate(131.622928, 228.881286) rotate(-30.000000) translate(-131.622928, -228.881286) " cx="131.622928" cy="228.881286" rx="2.31943107" ry="4.03888618"></ellipse>
                        <path d="M135.017929,165.187032 L130.085391,162.320706 C129.278556,161.737697 128.793231,160.804564 128.776759,159.804606 L128.776759,135.841749 C128.776759,134.874018 129.36244,134.431627 130.085391,134.846369 L135.017929,137.721912 C135.823262,138.284468 136.318338,139.196297 136.354015,140.182713 L136.354015,164.191652 C136.354015,165.159383 135.74088,165.601774 135.017929,165.187032 Z" id="Path" fill="#E9EAF2" fill-rule="nonzero"></path>
                        <path d="M146.420419,171.795251 L141.487881,168.919708 C140.680207,168.341609 140.194227,167.410641 140.179249,166.412825 L140.179249,117.565462 C140.179249,116.643814 140.76493,116.146124 141.487881,116.570082 L146.420419,119.445625 C147.227254,120.028634 147.71258,120.961767 147.729052,121.961725 L147.729052,170.809087 C147.692447,171.767601 147.106765,172.209993 146.420419,171.795251 Z" id="Path" fill="#8C50FF" fill-rule="nonzero"></path>
                        <path d="M169.106433,185.002472 L164.173895,182.136145 C163.363639,181.556138 162.877337,180.621127 162.865263,179.620045 L162.865263,135.528389 C162.865263,134.560658 163.450944,134.118267 164.173895,134.533008 L169.106433,137.399335 C169.913268,137.982343 170.398593,138.915476 170.415065,139.915435 L170.415065,184.016308 C170.415065,184.984039 169.829384,185.42643 169.106433,185.002472 Z" id="Path" fill="#E9EAF2" fill-rule="nonzero"></path>
                        <path d="M180.472318,191.61069 L175.53978,188.744364 C174.732945,188.161355 174.247619,187.228222 174.231148,186.228264 L174.231148,149.694124 C174.231148,148.772475 174.816829,148.284002 175.53978,148.698743 L180.472318,151.574286 C181.279992,152.152385 181.765972,153.083353 181.78095,154.08117 L181.78095,190.61531 C181.78095,191.592257 181.195269,192.034648 180.472318,191.61069 Z" id="Path" fill="#8C50FF" fill-rule="nonzero"></path>
                        <path d="M203.103424,204.771829 L198.161735,201.905502 C197.357229,201.321514 196.875142,200.388081 196.862254,199.389402 L196.862254,181.334311 C196.862254,180.357364 197.438784,179.914973 198.161735,180.338931 L203.103424,183.205257 C203.904556,183.792177 204.385696,184.723777 204.402905,185.721357 L204.402905,203.776448 C204.402905,204.744179 203.817223,205.18657 203.103424,204.771829 Z" id="Path" fill="#E9EAF2" fill-rule="nonzero"></path>
                        <path d="M214.460158,211.380047 L209.564225,208.504504 C208.756551,207.926406 208.270571,206.995437 208.255592,205.997621 L208.255592,144.588192 C208.255592,143.611245 208.841274,143.168853 209.564225,143.592812 L214.496763,146.459138 C215.304731,147.041154 215.790379,147.974907 215.805395,148.975238 L215.805395,210.384667 C215.76879,211.352398 215.183109,211.794789 214.460158,211.380047 Z" id="Path" fill="#8C50FF" fill-rule="nonzero"></path>
                        <path d="M242.179373,227.499677 L237.246835,224.624134 C236.439161,224.046035 235.953181,223.115067 235.938203,222.11725 L235.938203,204.052943 C235.938203,203.085212 236.523885,202.642821 237.246835,203.057563 L242.179373,205.933105 C242.989629,206.513113 243.475932,207.448124 243.488006,208.449205 L243.488006,226.504296 C243.488006,227.472027 242.902324,227.914418 242.179373,227.499677 Z" id="Path" fill="#E9EAF2" fill-rule="nonzero"></path>
                        <path d="M253.545258,234.098679 L248.61272,231.223136 C247.802465,230.643128 247.316162,229.708118 247.304088,228.707036 L247.304088,204.744179 C247.304088,203.776448 247.88977,203.334057 248.61272,203.748799 L253.545258,206.615125 C254.352093,207.198134 254.837419,208.131267 254.853891,209.131225 L254.853891,233.140164 C254.853891,234.098679 254.268209,234.522637 253.545258,234.098679 Z" id="Path" fill="#8C50FF" fill-rule="nonzero"></path>
                    </g>
                    <path d="M94.3549558,456.66303 L54.3298534,432.689702 C49.7929579,429.960803 50.3578283,425.238784 55.6030534,422.072144 L75.9204553,409.880579 C81.1567142,406.74188 89.0559335,406.369334 93.6197277,409.163428 L133.64483,433.174012 C138.181726,435.893597 137.616855,440.624929 132.37163,443.782256 L112.054228,455.97382 C106.817969,459.065951 98.91875,459.457125 94.3549558,456.66303 Z" id="Path" fill="#D6D8E5" fill-rule="nonzero" opacity="0.4"></path>
                    <path d="M156.64557,427.016216 L156.64557,371.30289 L71.2046887,361.708861 L71.2046887,417.770898 L71.2046887,417.770898 C71.1509072,419.48763 72.1010471,421.12389 74.2523072,422.339909 L114.265745,445.390616 C118.801319,448.001479 126.725127,447.670651 131.95986,444.657428 L152.271341,432.953248 C155.22036,431.254399 156.690388,429.063777 156.600752,427.016216 L156.64557,427.016216 Z" id="Path" fill="#D6D8E5" fill-rule="nonzero"></path>
                    <path d="M156.641045,377.527193 L156.641045,371.196702 L150.066948,371.196702 L113.555149,349.309959 C109.016959,346.582262 101.08858,346.926715 95.8508273,350.064032 L75.5276296,362.296776 C75.1661753,362.510048 74.8158996,362.743116 74.4782854,362.994992 L71.20469,361.254107 C71.20469,361.254107 71.20469,367.94767 71.20469,368.1711 L71.20469,368.1711 C71.1508775,369.939913 72.1015654,371.64356 74.2540665,372.909658 L114.290587,396.900359 C118.828776,399.618746 126.757155,399.274293 131.994908,396.136976 L152.318106,383.96009 C155.358513,382.09818 156.802483,379.770794 156.632076,377.573741 L156.641045,377.527193 Z" id="Path" fill="#EDF0F9" fill-rule="nonzero"></path>
                    <path d="M114.291665,391.199297 L74.2665623,367.186084 C69.7296667,364.465145 70.2945371,359.731458 75.5397623,356.563242 L95.8571641,344.374929 C101.093423,341.225349 109.019541,340.889891 113.556437,343.610829 L153.581539,367.624043 C158.118435,370.344981 157.553564,375.078669 152.308339,378.246885 L131.990937,390.435198 C126.754678,393.584777 118.82856,393.920236 114.291665,391.199297 Z" id="Path" fill="#E2E5F2" fill-rule="nonzero"></path>
                    <path d="M105.379747,357.431287 L105.379747,354.741859 L104.110212,354.741859 L103.717658,354.416525 C101.184842,352.747234 98.1905984,352.747234 95.6577824,354.416525 C95.4190666,354.597057 95.1927264,354.803861 94.9812539,355.03466 L93.9873418,354.741859 L93.9873418,357.431287 C94.0823709,358.757548 94.7209347,359.914154 95.6577824,360.456893 C98.1905984,362.126183 101.184842,362.126183 103.717658,360.456893 C104.654758,359.91669 105.291493,358.757601 105.379747,357.431287 L105.379747,357.431287 Z" id="Path" fill="#6E48E5" fill-rule="nonzero"></path>
                    <ellipse id="Oval" fill="#8C50FF" fill-rule="nonzero" cx="99.6835443" cy="354.588608" rx="5.69620253" ry="4.2721519"></ellipse>
                    <path d="M119.479134,364.066095 C119.168355,364.970237 118.62891,365.709187 117.950307,366.160332 C115.417858,367.819974 112.429263,367.819974 109.896814,366.160332 C109.218211,365.709187 108.678766,364.970237 108.367987,364.066095 C107.950275,362.677171 108.468238,361.190588 109.896814,360.105491 C112.429263,358.445849 115.417858,358.445849 117.950307,360.105491 C119.387237,361.136333 119.896846,362.622916 119.479134,364.066095 Z" id="Path" fill="#5E42D3" fill-rule="nonzero"></path>
                    <path d="M119.620253,364.561582 C119.300907,365.331554 118.74659,365.960847 118.049278,366.345044 C115.447013,367.758403 112.376026,367.758403 109.773761,366.345044 C108.902599,366.277587 108.227848,365.497135 108.227848,364.556962 C108.227848,363.616789 108.902599,362.836337 109.773761,362.76888 C112.376026,361.355521 115.447013,361.355521 118.049278,362.76888 C118.74803,363.155407 119.302525,363.788163 119.620253,364.561582 L119.620253,364.561582 Z" id="Path" fill="#8C50FF" fill-rule="nonzero"></path>
                    <path d="M136.708861,374.519894 L136.708861,371.830467 L135.439326,371.830467 L135.046772,371.505133 C132.513956,369.835842 129.519712,369.835842 126.986896,371.505133 C126.750268,371.685841 126.524153,371.888814 126.310368,372.112423 L125.316456,371.830467 L125.316456,374.519894 C125.411485,375.846155 126.050049,377.002762 126.986896,377.5455 C129.519712,379.214791 132.513956,379.214791 135.046772,377.5455 C135.983872,377.005298 136.620607,375.846209 136.708861,374.519894 Z" id="Path" fill="#6E48E5" fill-rule="nonzero"></path>
                    <ellipse id="Oval" fill="#8C50FF" fill-rule="nonzero" cx="131.012658" cy="371.677215" rx="5.69620253" ry="4.2721519"></ellipse>
                    <g id="Men_2" transform="translate(56.962025, 316.139241)" fill-rule="nonzero">
                        <path d="M2.98372514,30.4877373 C2.73960217,32.6075949 0.27124774,41.7602848 0.759493671,44.8991297 C1.2477396,48.0379747 9.8915009,53.278481 9.8915009,53.278481 L11.084991,47.9106013 L6.32911392,43.215981 L7.61301989,34.3271361 L2.98372514,30.4877373 Z" id="_Контур_" fill="#FFCEA9"></path>
                        <path d="M9.62929476,21.471519 C7.90126341,20.6609511 5.84385861,21.2832042 4.84629295,22.9181171 C3.58047016,25.0288766 2.26943942,32.252769 2.13381555,33.4901108 C2.13381555,33.4901108 3.94213382,35.9556962 6.57323689,35.5462816 L9.62929476,21.471519 Z" id="_Контур_2" fill="#EDEDED"></path>
                        <path d="M19.4394213,123.515823 C21.309946,124.0338 23.3080087,123.788611 25,122.833465 C26.3381555,122.878956 33.6166365,119.740111 34.60217,122.369462 C35.5063291,124.68038 32.3146474,126.809335 30.6329114,127.21875 C26.9620253,128.12856 24.2495479,129.94818 22.7667269,130.275712 C21.6726944,130.503165 20.244123,130.657832 19.3761302,129.784415 C18.318264,128.747231 18.4086799,124.889636 19.4394213,123.515823 Z" id="Path" fill="#38226D"></path>
                        <path d="M22.7667269,129.629747 C24.2495479,129.320411 26.9620253,127.473497 30.6329114,126.581883 C32.0433996,126.236155 34.4755877,124.689478 34.7197107,122.833465 C35.045208,124.953323 32.2061483,126.83663 30.6329114,127.21875 C26.9620253,128.12856 24.2495479,129.94818 22.7667269,130.275712 C21.6726944,130.503165 20.244123,130.657832 19.3761302,129.784415 C19.1383608,129.528422 18.9701998,129.215067 18.8878843,128.874604 C19.9879161,129.732698 21.4280083,130.013059 22.7667269,129.629747 Z" id="Path" fill="#9C73FF"></path>
                        <path d="M7.64918626,118.184335 C9.51853251,118.705069 11.5165346,118.463156 13.2097649,117.511076 C14.5479204,117.511076 21.8173599,114.417722 22.8119349,117.047073 C23.716094,119.348892 20.5244123,121.477848 18.8426763,121.896361 C15.1717902,122.806171 12.4502712,124.625791 10.9764919,124.944225 C9.87341772,125.171677 8.45388788,125.326345 7.57685353,124.462025 C6.52802893,123.415744 6.61844485,119.558149 7.64918626,118.184335 Z" id="Path" fill="#38226D"></path>
                        <path d="M10.9764919,124.307358 C12.4502712,123.988924 15.1717902,122.151108 18.8426763,121.250396 C20.2531646,120.913766 22.6853526,119.357991 22.9294756,117.511076 C23.2549729,119.630934 20.4159132,121.505142 18.8426763,121.896361 C15.1717902,122.806171 12.4502712,124.625791 10.9764919,124.944225 C9.87341772,125.171677 8.45388788,125.326345 7.57685353,124.462025 C7.34761249,124.201331 7.18334855,123.889462 7.09764919,123.552215 C8.20071917,124.403536 9.63746487,124.683245 10.9764919,124.307358 L10.9764919,124.307358 Z" id="Path" fill="#9C73FF"></path>
                        <path d="M7.5045208,98.3049842 C7.81779145,95.5874027 8.37769362,92.9043931 9.17721519,90.289557 C9.17721519,90.289557 8.67992767,83.375 8.42676311,76.815269 C8.14647378,69.3730222 5.57866184,62.8223892 7.6039783,56.8904272 L30.4159132,61.994462 C30.4159132,61.994462 29.0415913,91.6633703 28.7341772,95.2480222 C28.5686447,98.0448802 28.2273963,100.828395 27.7124774,103.581883 C26.6726944,109.340981 25,123.042722 25,123.042722 C22.5949367,124.452927 19.4213382,123.670491 19.4213382,123.670491 C19.4213382,123.670491 19.60217,106.384098 19.755877,102.198972 C19.9457505,97.1313291 20.0994575,97.5134494 20.0994575,97.5134494 L19.3399638,84.8943829 L18.8517179,78.616693 C18.8517179,78.616693 18.2188065,83.2203323 17.8028933,87.3417722 C17.4502712,90.9264241 16.5913201,94.1744462 15.6238698,100.852453 C14.7920434,106.647943 13.4358047,118.293513 13.4358047,118.293513 C11.0216998,119.703718 7.74864376,118.530063 7.74864376,118.530063 C7.74864376,118.530063 6.85352622,103.327136 7.5045208,98.3049842 Z" id="_Контур_3" fill="#8C50FF"></path>
                        <path d="M10.8499096,21.5897943 C12.5949367,21.6807753 13.8878843,22.1265823 14.1048825,21.5897943 C14.2860001,20.6881719 14.4158075,19.7768786 14.4936709,18.8603639 C14.2947559,18.3508703 14.1229656,17.8049842 14.1229656,17.8049842 C11.9439421,16.4584652 11.2567812,14.0838608 10.9674503,11.318038 C10.4792043,6.59612342 13.0108499,2.46558544 17.7034358,1.97428797 C22.1157324,1.51028481 25.3707052,4.63093354 26.2296564,8.91613924 C26.6998192,11.0268987 27.6311031,15.0300633 26.3743219,18.505538 C25.6690778,20.4525316 24.7649186,21.9992089 23.8607595,22.2994462 C22.9859813,22.2708232 22.1135481,22.1918439 21.2477396,22.0628956 L21.2477396,22.0628956 C21.2477396,22.0628956 21.0126582,23.3730222 20.8499096,24.2100475 C20.6871609,25.0470728 20.7504521,25.5019778 22.4141049,26.5300633 C24.0777577,27.5581487 19.8915009,29.7143987 17.1790235,29.5051424 C14.4665461,29.2958861 11.3743219,27.6400316 10.5244123,25.8659019 C9.55696203,23.8734177 9.63833635,21.5352057 10.8499096,21.5897943 Z" id="_Контур_4" fill="#FFCEA9"></path>
                        <path d="M13.3453888,21.835443 C12.8661844,23.0454905 14.0867993,24.5648734 17.3508137,25.5474684 C20.6148282,26.5300633 20.9132007,25.2563291 20.9132007,25.2563291 C23.0814003,26.2330241 25.1943241,27.3294995 27.2423146,28.5407437 C29.20434,29.9236551 30.0723327,33.9086234 30.3345389,40.6412184 C30.641953,48.429193 30.6690778,59.9837816 30.4068716,61.9762658 C30.4068716,61.9762658 26.7902351,65.6155063 22.0614828,65.2606804 C17.3327306,64.9058544 9.50271248,60.7116297 7.59493671,57.4818038 C7.64918626,50.6491297 8.44484629,49.5391614 7.34177215,45.6087816 C4.82820976,36.6016614 3.50813743,32.8714399 4.72875226,26.9303797 C5.7323689,21.9901108 7.14285714,21.380538 9.08679928,21.4260285 C10.5127206,21.4837509 11.934402,21.6204292 13.3453888,21.835443 L13.3453888,21.835443 Z" id="_Контур_5" fill="#F4F4F4"></path>
                        <path d="M37.7124774,47.1008703 C33.8607595,48.0743671 32.965642,45.6360759 32.4593128,43.6162975 C31.2296564,38.721519 30.5786618,34.3089399 29.6654611,31.534019 C28.5895118,28.2587025 27.4593128,27.7401108 25.8860759,27.1032437 C24.0777577,26.3481013 22.4321881,27.9311709 23.0470163,32.0981013 C23.8057149,36.9330957 24.9856706,41.6915509 26.5732369,46.3184335 C27.0524412,47.8378165 28.119349,50.5399525 29.7287523,51.8500791 C31.7088608,53.460443 34.7016275,53.3967563 39.2224231,52.2685918 C41.1482821,51.7772943 43.2640145,50.6218354 46.9077758,48.9113924 C47.8842676,48.4564873 48.6437613,48.1471519 50.5244123,47.2646361 C52.4128348,46.4162584 54.0670519,45.1170928 55.3435805,43.4798259 C56.3291139,42.0423259 56.4556962,41.3690665 56.2477396,41.0415348 C56.039783,40.7140032 55.5515371,40.7231013 55.0271248,41.3326741 C54.2660499,42.3511731 53.3288369,43.2233592 52.2603978,43.9074367 C52.2603978,43.9074367 53.4719711,42.6428006 54.1320072,41.8239715 C54.7217031,41.0956839 55.2113282,40.2908626 55.5877034,39.4311709 C55.9312839,38.5941456 55.2169982,37.4568829 54.6835443,38.0573576 C54.1500904,38.6578323 53.8788427,39.258307 52.875226,40.4592563 C52.3430516,41.1005497 51.7358865,41.674852 51.0669078,42.1696994 C51.6842515,41.3310518 52.2316256,40.4424761 52.7034358,39.5130538 C53.1292216,38.7870828 53.3394411,37.9535778 53.3092224,37.1111551 C53.3092224,36.6744462 52.6672694,36.1558544 52.0886076,36.9837816 C51.5300073,38.1212817 50.8379089,39.1872991 50.0271248,40.159019 C49.1229656,41.0688291 48.3996383,41.596519 48.3815552,41.3417722 C48.363472,41.0870253 48.9059675,40.5866297 49.2224231,39.5221519 C49.5388788,38.4576741 49.2224231,37.3204114 48.6347197,37.2021361 C48.0470163,37.0838608 48.164557,37.1111551 47.7305606,38.1119462 C47.0827913,39.1384783 46.4999604,40.2050702 45.9855335,41.3053797 C45.6830213,42.3296018 45.1403633,43.2656869 44.403255,44.0348101 C43.4538879,45.0537975 41.3652803,46.1728639 37.7124774,47.1008703 Z" id="_Контур_6" fill="#FFCEA9"></path>
                        <path d="M24.4575045,26.4299842 C27.0253165,26.0478639 28.8426763,27.2124209 29.9728752,31.1246044 C31.1030741,35.036788 31.8987342,38.2120253 31.8987342,38.2120253 C30.884478,39.6870079 29.3478635,40.71565 27.6039783,41.0870253 C24.5298373,41.8421677 23.4267631,40.3591772 23.4267631,40.3591772 C23.4267631,40.3591772 22.5768535,36.2650316 22.0433996,33.4719146 C21.5099458,30.6787975 21.283906,26.9030854 24.4575045,26.4299842 Z" id="_Контур_7" fill="#EDEDED"></path>
                        <path d="M26.0669078,8.30656646 C26.0669078,8.30656646 30.1175407,2.10166139 21.3291139,0.837025316 C15,-0.0727848101 10.9222423,4.02136076 10.4792043,8.47033228 C10.0271248,12.7191456 12.6311031,17.1317247 14.5027125,18.8785601 C16.3476142,19.3509688 18.3012823,19.1141551 19.9819168,18.2143987 C20.0895804,17.0592604 20.1318428,15.8988937 20.1084991,14.7389241 C20.1084991,14.7389241 16.9891501,8.18829114 26.0669078,8.30656646 Z" id="Path" fill="#3A2C6D"></path>
                    </g>
                    <ellipse id="Oval" fill="#D6D8E5" fill-rule="nonzero" opacity="0.4" cx="350.316456" cy="431.487342" rx="22.7848101" ry="12.8164557"></ellipse>
                    <g id="Girl_14" transform="translate(321.835443, 304.746835)" fill-rule="nonzero">
                        <path d="M29.7816456,2.14137931 C30.7310127,0.668616325 38.1360759,-0.307202095 40.5664557,5.64709734 C41.5158228,7.90593627 41.3449367,13.6795286 42.1139241,17.3027062 C42.8829114,20.9258839 44.6962025,22.985945 45.3512658,25.9224356 C46.0063291,28.8589262 44.943038,33.7922305 37.4905063,34.66866 C30.0379747,35.5450895 24.3132911,33.0513313 22.556962,30.7924924 C20.8006329,28.5336534 20.7626582,23.7268442 22.556962,21.1427324 C24.3512658,18.5586207 25.7753165,16.4714535 25.7278481,13.1103012 L29.7816456,2.14137931 Z" id="_Контур_8" fill="#3A2C6D"></path>
                        <path d="M34.6613924,1.12038411 C34.6613924,1.12038411 29.0981013,-0.406591008 25.7278481,2.44858141 C23.4648031,4.43872979 22.5503658,7.46038381 23.3544304,10.2912702 C23.8006329,11.962811 24.7025316,14.2397206 26.0981013,14.3662156 C27.4936709,14.4927106 34.6613924,1.12038411 34.6613924,1.12038411 Z" id="_Контур_9" fill="#3A2C6D"></path>
                        <path d="M36.7879747,15.5498472 C36.7879747,15.5498472 36.4177215,21.4408992 36.5316456,21.8745962 C36.6455696,22.3082933 38.9620253,22.7781318 39.6170886,23.2479703 C40.2721519,23.7178088 36.2468354,29.7443911 34.2056962,30.629856 C32.164557,31.5153208 25.8322785,29.2474465 25.3860759,26.2567438 C24.9873418,23.4919249 27.1993671,21.3505456 28.0537975,20.6006111 C28.6343534,20.5482991 29.2179487,20.5332061 29.8006329,20.5554343 L29.9905063,17.7002619 C32.7626582,16.8599738 36.7879747,15.5498472 36.7879747,15.5498472 Z" id="_Контур_10" fill="#FFCEA9"></path>
                        <path d="M21.835443,26.6904409 C21.835443,26.5187691 20.8860759,26.997643 20.8860759,27.0066783 C20.8860759,27.0157137 20.4398734,42.1408992 19.6613924,43.5142732 L19.6613924,43.5142732 C17.6772152,46.7218245 12.4272152,52.1611087 12.2943038,52.7664775 C11.9050633,54.5735487 13.0253165,52.95622 14.8291139,52.7664775 C15.8449367,52.6490179 21.8164557,46.9025316 23.1550633,45.5924051 L23.2405063,45.6375818 L23.2405063,45.4930162 L23.4113924,45.3213444 C23.4452389,44.9123749 23.4452389,44.5015055 23.4113924,44.092536 C25.9272152,27.6572239 22.8702532,26.5639459 21.835443,26.6904409 Z" id="Path" fill="#FFCEA9"></path>
                        <path d="M37.6329114,22.452859 C39.3797468,22.705849 41.3639241,23.5913138 41.6392405,24.4948494 C42.3579864,27.7641863 42.1880667,31.1540166 41.1455696,34.3433872 C39.6360759,38.1382366 38.6202532,40.5506766 37.7468354,42.1860759 C37.7468354,42.1860759 30.2183544,45.2580969 24.1424051,41.6710607 C24.1424051,41.6710607 23.7246835,37.6051506 23.6962025,35.4276299 C18.0949367,30.7744216 22.8892405,25.0369708 27.6360759,20.5825404 C28.2045072,20.5330036 28.7765055,20.5330036 29.3449367,20.5825404 C29.3449367,20.5825404 25.1107595,25.3532082 28.0537975,28.0638149 C34.3670886,26.2025316 35.6202532,23.4919249 37.6329114,22.452859 Z" id="_Контур_11" fill="#F4F4F4"></path>
                        <path d="M25.2151899,8.24024443 L25.2151899,8.24024443 C25.8322785,4.45443038 28.7088608,1.59022261 32.8101266,1.8161065 C36.1993939,1.9902162 39.0917645,4.20796321 39.9917589,7.32267741 C40.8917533,10.4373916 39.5976199,13.7508478 36.778481,15.5498472 C36.63697,16.1233079 36.423407,16.6784617 36.1424051,17.2033173 C34.6898734,18.8116107 30.8259494,19.8326058 29.5537975,19.8506766 C28.4525316,19.8506766 27.5031646,18.8838935 26.4683544,17.2575295 C24.3227848,13.8692711 24.8734177,10.1105631 25.2151899,8.24024443 Z" id="_Контур_12" fill="#FFCEA9"></path>
                        <path d="M34.0917722,1.88838935 C36.9398734,2.42147534 39.3322785,3.19851593 40.1202532,5.88201659 C40.6518987,7.74329987 41.3544304,11.30323 40.6898734,12.7579223 L40.2721519,13.8331296 L36.7879747,15.5498472 C36.7879747,15.5498472 35.1550633,14.2577914 35.6677215,10.4719773 C35.647839,9.96134217 35.4767032,9.46645539 35.1740506,9.0443911 C34.9561324,8.68575885 34.7930969,8.29936817 34.6898734,7.89690092 C34.2762352,6.87429099 33.4680691,6.04050524 32.4303797,5.56577914 C29.8386076,4.18336971 26.0411392,5.37603667 25.5094937,5.88201659 C27.0222799,2.79076488 30.5993407,1.12623634 34.0917722,1.88838935 L34.0917722,1.88838935 Z" id="Path" fill="#3A2C6D"></path>
                        <path d="M39.3322785,121.697206 C37.8702532,122.826626 35.6012658,122.049585 35.5348101,122.148974 C33.833319,123.537101 32.052092,124.834168 30.1993671,126.034177 C29.25,126.711829 27.8734177,127.6244 28.1297468,128.925491 C28.585443,131.265648 32.5158228,130.551855 33.9968354,129.829027 C35.4778481,129.106198 36.693038,127.931602 38.0981013,127.11842 C39.0949367,126.531122 40.0822785,126.214884 40.2436709,125.022217 C40.2911392,124.272283 39.5886076,121.6701 39.3322785,121.697206 Z" id="Path" fill="#38226D"></path>
                        <path d="M40.1867089,124.516237 C39.9873418,125.672763 39.0189873,125.989 38.0221519,126.576299 C36.5981013,127.416587 35.3449367,128.63636 33.8639241,129.350153 C32.3829114,130.063946 29.0696203,130.660279 28.1107595,128.997774 C28.6329114,131.247577 32.4968354,130.54282 33.9588608,129.829027 C35.4208861,129.115234 36.6550633,127.931602 38.0601266,127.11842 C39.056962,126.531122 40.0443038,126.214884 40.2056962,125.022217 C40.2131898,124.853344 40.2068415,124.684172 40.1867089,124.516237 L40.1867089,124.516237 Z" id="Path" fill="#9C73FF"></path>
                        <path d="M29.1075949,119.754605 C27.7689873,120.793671 25.7563291,120.206373 25.6613924,120.305762 C24.1015833,121.567462 22.4727242,122.749735 20.7816456,123.847621 C19.9462025,124.471061 18.6455696,125.302313 18.8829114,126.49498 C19.3006329,128.63636 22.8987342,127.976779 24.2658228,127.326233 C25.6329114,126.675687 26.7246835,125.582409 28.0158228,124.82344 C28.9651899,124.281318 29.8291139,124.001222 29.971519,122.898909 C30.0664557,122.230292 29.3449367,119.727499 29.1075949,119.754605 Z" id="Path" fill="#38226D"></path>
                        <path d="M29.9620253,122.456176 C29.7816456,123.513313 28.8892405,123.802444 27.9778481,124.33553 C26.6772152,125.112571 25.528481,126.22392 24.1803797,126.883501 C22.8322785,127.543082 19.7943038,128.085203 18.9113924,126.558228 C19.3860759,128.618289 22.9272152,127.976779 24.2753165,127.326233 C25.6234177,126.675687 26.7341772,125.582409 28.0253165,124.82344 C28.9746835,124.281318 29.8386076,124.001222 29.9810127,122.898909 C29.9932293,122.751138 29.986855,122.602508 29.9620253,122.456176 L29.9620253,122.456176 Z" id="Path" fill="#9C73FF"></path>
                        <path d="M21.2468354,55.242165 C21.8924051,50.4534265 23.7436709,43.4962025 23.7436709,43.4962025 C25.4938762,44.2741859 27.386932,44.7192314 29.3164557,44.8063291 C32.1458352,44.7969617 34.9681493,44.5368248 37.7468354,44.0292885 C38.6528104,45.5374727 39.6447989,46.9973581 40.7183544,48.4024007 C42.1708861,50.3178961 44.9905063,54.5103012 44.306962,61.8379747 C43.8607595,66.6267132 41.0411392,86.965299 41.0411392,86.965299 C42.1392931,90.3846075 42.7241905,93.9344623 42.778481,97.5095591 C42.5122418,101.761168 41.9220835,105.988775 41.0126582,110.159057 L39.3322785,121.697206 C39.3322785,121.697206 37.0917722,123.242252 35.5348101,122.148974 L35.7341772,110.85478 C35.5443038,108.089961 35.25,104.015015 35.0696203,101.412833 C34.7658228,97.1662156 33.9683544,90.4348756 33.7405063,88.7633348 C33.5126582,87.091794 32.943038,84.1372326 32.6677215,80.8483632 C32.3924051,77.5594937 31.1012658,60.8169795 31.1012658,60.8169795 L30.9208861,63.9522479 C30.9208861,63.9522479 30.7405063,69.0391532 29.971519,75.3187254 C29.2025316,81.5982977 28.9367089,84.3540812 28.9367089,84.3540812 C29.6655033,85.6204565 30.1751966,86.9902946 30.4462025,88.4109559 C30.5791139,89.7662593 32.2025316,100.500262 31.2341772,105.957617 L29.2310127,119.844959 C28.2233159,120.510805 26.9397172,120.672343 25.7848101,120.278656 L24.6075949,106.28289 C23.8196203,100.961065 22.1487342,89.6759057 21.8924051,88.2121781 C21.3227671,85.2555654 20.986385,82.2625304 20.8860759,79.2581405 C20.4683544,73.1863815 20.6012658,60.0218682 21.2468354,55.242165 Z" id="Path" fill="#FFCEA9"></path>
                        <path d="M37.7468354,42.1860759 L42.0759494,50.4534265 C42.0759494,50.4534265 48.721519,59.6514186 41.8386076,83.2969446 L43.1202532,90.597512 C43.1202532,90.597512 30.1708861,98.5034483 21.5031646,90.597512 C21.5031646,90.597512 18.5031646,68.7409865 20.0981013,58.6665648 C20.9905804,52.8770466 22.3393212,47.1596116 24.1329114,41.5626364 C24.1329114,41.5626364 26.2594937,43.7943693 37.1772152,42.3216063" id="Path" fill="#8C50FF"></path>
                        <path d="M27.6360759,20.5825404 C27.6360759,20.5825404 24.1993671,19.5796159 20.5443038,26.8350065 L21.9113924,27.6120471 C21.9113924,27.6120471 25.5094937,22.4438237 27.6360759,20.5825404 Z" id="Path" fill="#EDEDED"></path>
                        <polygon id="Path" fill="#F4F4F4" points="0.797468354 59.8953732 15.5886076 51.7183763 26.2025316 57.5461807 11.4113924 65.732213"></polygon>
                        <path d="M13.6803797,52.3147097 C12.7526833,52.4032259 11.8558312,52.6805546 11.0506329,53.1278918 C10.7548711,53.373535 10.4372181,53.5942272 10.1012658,53.7874727 C9.95886076,53.8507202 9.8164557,53.9410738 9.66455696,54.0043213 C9.43835053,54.0832275 9.23386579,54.2098805 9.0664557,54.3747708 C8.90126408,54.6069287 8.81206577,54.8804702 8.81012658,55.1608468 C8.73438635,55.4961524 8.71515887,55.8407884 8.75316456,56.181842 C8.88607595,56.6878219 9.43670886,56.6426451 9.70253165,56.2902663 C9.84682113,56.1139206 9.92978102,55.8991631 9.93987342,55.6758621 C9.9560796,55.242726 10.1889693,54.8430901 10.5664557,54.6006547 L14.0981013,52.5134876 C14.0144198,52.3724177 13.8491691,52.2937811 13.6803797,52.3147097 L13.6803797,52.3147097 Z" id="Path" fill="#FFCEA9"></path>
                        <path d="M41.8196203,27.1060672 C41.335443,25.1905718 39.7594937,25.804976 38.4018987,24.6845919 C35.2594937,28.9221737 37.3481013,40.3790048 37.7753165,41.5987778 L25.6993671,48.9264513 L25.6993671,48.9264513 L24.8829114,49.4053252 C23.5084521,50.2647479 21.9897455,50.8942411 20.3924051,51.2666085 C19.1867089,51.4021388 18.5601266,53.0194675 17.2689873,53.1640332 C17.0675341,53.1709487 16.8898626,53.2916254 16.8174981,53.4706901 C16.7451336,53.6497549 16.7920458,53.8526399 16.9367089,53.9862505 C17.4493671,54.456089 18.835443,54.0675687 19.7848101,53.0194675 C19.7801685,53.0433593 19.7801685,53.0678585 19.7848101,53.0917503 C19.8004577,53.43263 20.0020479,53.7409737 20.3164557,53.9049323 C20.3857573,53.9449655 20.4636242,53.9696682 20.5443038,53.9772152 C20.5439594,54.0540929 20.5670432,54.1294167 20.6107595,54.1940637 C20.749637,54.4634637 21.0199871,54.6496667 21.3322785,54.6910083 L21.3322785,54.6910083 C21.4714043,55.0717644 21.8587276,55.3187432 22.2816456,55.2963771 C22.5586792,55.2831713 22.8200449,55.1701041 23.0126582,54.9801397 C24.0424537,54.6062891 24.9520947,53.9834636 25.6518987,53.1730685 C26.2703908,52.5616068 26.9232468,51.9824949 27.6075949,51.4382802 C30.8829114,50.0920122 40.7088608,46.098385 41.1455696,45.5291576 C41.8291139,44.6707988 42.5221519,29.8166739 41.8196203,27.1060672 Z" id="Path" fill="#FFCEA9"></path>
                        <path d="M42.9208861,32.2471846 C42.9208861,32.2471846 39.056962,33.8916194 35.8481013,32.3556089 L36.3132911,26.6000873 C36.3132911,26.6000873 36.3607595,23.5099956 39.2563291,23.2027935 C42.1518987,22.8955914 43.6708861,26.4284155 42.9208861,32.2471846 Z" id="Path" fill="#EDEDED"></path>
                    </g>
                </g>
            </g>
        </g>
    </g>
</svg>